<mxfile host="app.diagrams.net" modified="2022-12-01T04:42:13.554Z" agent="5.0 (Macintosh; Intel Mac OS X 10_15_7) AppleWebKit/537.36 (KHTML, like Gecko) Chrome/106.0.0.0 Safari/537.36" version="20.6.0" etag="E5Gx-x7OdcejOkNtgRPN" type="github">
  <diagram id="hHBPxMFvzfjltvOA4EfG" name="第 1 页">
    <mxGraphModel dx="940" dy="606" grid="1" gridSize="10" guides="1" tooltips="1" connect="1" arrows="1" fold="1" page="1" pageScale="1" pageWidth="827" pageHeight="1169" math="0" shadow="0">
      <root>
        <mxCell id="0" />
        <mxCell id="1" parent="0" />
        <mxCell id="7WdWyQTxUCrzGVzjhmJ1-10" style="edgeStyle=orthogonalEdgeStyle;rounded=0;orthogonalLoop=1;jettySize=auto;html=1;startArrow=none;startFill=1;shape=link;strokeColor=#FFD966;width=18;" edge="1" parent="1" source="7WdWyQTxUCrzGVzjhmJ1-12">
          <mxGeometry relative="1" as="geometry">
            <mxPoint x="470" y="260" as="targetPoint" />
          </mxGeometry>
        </mxCell>
        <mxCell id="7WdWyQTxUCrzGVzjhmJ1-11" value="1:签订代付协议" style="edgeLabel;html=1;align=center;verticalAlign=middle;resizable=0;points=[];" vertex="1" connectable="0" parent="7WdWyQTxUCrzGVzjhmJ1-10">
          <mxGeometry x="0.0741" y="-1" relative="1" as="geometry">
            <mxPoint x="-24" y="-1" as="offset" />
          </mxGeometry>
        </mxCell>
        <mxCell id="7WdWyQTxUCrzGVzjhmJ1-1" value="客户" style="shape=image;html=1;verticalAlign=top;verticalLabelPosition=bottom;labelBackgroundColor=#ffffff;imageAspect=0;aspect=fixed;image=https://cdn1.iconfinder.com/data/icons/business-and-finance-20/200/vector_65_01-128.png" vertex="1" parent="1">
          <mxGeometry x="80" y="200" width="120" height="120" as="geometry" />
        </mxCell>
        <mxCell id="7WdWyQTxUCrzGVzjhmJ1-7" value="" style="shape=image;verticalLabelPosition=bottom;labelBackgroundColor=default;verticalAlign=top;aspect=fixed;imageAspect=0;image=data:image/png,iVBORw0KGgoAAAANSUhEUgAAAggAAACfCAYAAACcACGxAAAAAXNSR0IArs4c6QAAIABJREFUeF7sXQeYFMXWPd09cXOCXbIkySZQQREQMWBARTEgCogBxcQzg1kUs2LE35yVKIqKgqCgYEQlCSaShGXZwOYJ3fV/t6p7pmd3dicvwan3+YDd7gq3qqtO3XCuxBhj+M8WBgYJEh+/8XcNqHWjtmg3rDW1kMsrUPbnPyjZuhW1pWWQNA0yZGhWBSl5Ochu1RqZB3eA25kCb6oTKXl5gN32n5VocuBJCSQlkJRAUgIHhgSk/zJA0MAgc2wgAcyLqlXrULT8Rzirq+EqKYbm8kLW4RODBok/TT9gYJKAFRKjn9NPFMBhhz0vC9WOFLQ//WSobVtBobrpHf35A2PZJEeRlEBSAkkJJCVwoEvgPwsQuL5AA9zbdsD7xwZs+WIxnF4G8ANfHP6aRPoFQ8Ei6zoGHVDUWRkEGCRm6CMITgDIykDLk0+A1LE9rHm5B/paSo4vKYGkBJISSErgAJLAfwcg0DlPigLxB1BZhcIPZqN242ZI1S5++Me7KEyGV1Zhy0iFvWs35J57JjRZAZNI3yBASLIkJZCUQFICSQkkJbAvSuA/AxDoRi+Tu0V5Bcq/WYGSxUv5vw1TQQLwga59EGYJAgVMUpBz2knI6HcUmMOehAj74heR7FNSAkkJJCWQlACXwIEPEMhqIPGBouL7n1G5cBHcZRWQ6Oe6NiH+ugOxunTvAx8QIDBCmgp7Xh5yhp8Oa5fOwgciWZISSEogKYGkBJIS2MckcMADBDqQtZIyuL9ZjsKly6GoEvct2JuFYIJXltDujFMh9T4cUprT5/ewN/uVbDspgaQEkhJISiApAUMCBzRAIIuCVFWBjY8/D3lPOR+zzPYuQCCtgioDiiZxR0aldQHaXDcesFiSqzIpgaQEkhJISiApgX1GAvsNQBDmAO5JEJ7wNMCzag22vPUeLJzqgWITxJ97V38gum9wL9B4PA4b2l9+CaT27UJoEnwulnq4ZV0jRniiST6VlEBSAkkJJCWQlEAoCezTAIFHFnAKAX7vhsoUVLuADVvKsf6PbVizYQt2l1XxMSpQ0SwvGwe1a4WeXVogpXAXPIu/QEb1TjhUQFVUSJoEyBJEDOLeKcaRTgOTmQxVEcDHanOg5VmnAAdbUVO+A15vBarKtguth2yBI6MAzpQ8WNNaAKnNASmTgyWuJeFoIxkVsXdmNNlqUgJJCSQlcGBKYB8ACGZXQf2QY4BLA35bux1FewgQ7MHylX+j1i1x9bxFs3DHQ4O0SPxNJy4CQ/muMriqXOLgZAzNbW50z7Sglc2FXE8JOmVbkSdVQ9G84k1RmdAs+E/wqGecV2H0jw5wqliWBamSqqK2Yg9sGqk4alC7pxySy81BApMV2I5NQ9aJ2WAS0Tj5ixlYcIkxG1RrHjKbdwez5UNJbw8ltSUAq09L4h9VEjxEPZnJF5MSSEogKYH/qAT2PkAwogz0CXCpwBOvr8CqPypR7WZQNQ3MYCMMYRygA7hoexHgCX4gchojSUMKVySoGJTjxpnNapHp2S1IkHSgEMtaIAOGRqRJOuKQiPNAkuAp2gl3UREHJUxVocnUXn1zCf1E7eVAwTn50OTQqg7OlC1JUCQbVMWJ9FZDYWlxLMAcApnwEI5YRpR8NymBpASSEkhK4L8ogb0PEAB4NWDFr9vw0/oKLPlxI1RVhAPSMSv+FrrQGVheVApXlaeBh2XITOWHt6HeJ4sDcR52TGXoneFGN/sedLG7YVVrQjfYyBOc+aCmAnJNDdx7yuCt3MPNJMaIdF1FgzVIkgz7celIH5IRoh8m9ieutRBjk+Q0OAv6Qs7qDWtGR72OJEqIaVKTLyclkJRAUgL/MQnsRYDAuGag0g3cNHUR/i3zROwb4CdBBmpLK1Cxhw52Op5D37yDzbMiAQ54cUGbGpzgKIJV8/DETOKWLoCKJpGpQLQsIiKoLdJMiLwMWkkxXDt3QGKeUDig8aUmSUgbkgfHcU6d0CmalWmBmtoNuT2vAIPQKBg00tHUlnwnKYGkBJISSErgvyOBvQQQNFS7Zcz4ZAM+Wb4ZVS5VP7jC0RWYJ4db7oEaD0oKS+PhPuCrPE1RMSDXiz623eiW4uLaBwIAohEBCIQvgARPRRmUmgp4dhdxbEIMjfHgWpDtFuSd3xKsE3UrUtkY70iQbXmwtjwZzvz+gJQMp/zvfN7JkSYlkJRAUgLRS2CvAITicjcmPf09/t1VaQrXi24QDknB1o3bIIEOPnGbj+4wNdonSmTAynkKyCmSIR/luKuHimauYgESeGFwaiqKN6yFVVOhcSWDDEjk+BgfdT53IVAktL29G2rsFZELiPsfkMnFAjAZ9pxecB48PgkSIpdk8o2kBJISSErgPyeBpgUIDPjmtyI89faPqHb7kydHJ3UZXrcbe3aWUALGhBeJqTgqx4t+1iL00XZAKS+GuqdUTwBlcCzEtxsGHTRyLMgZmw9LpsxzOsQCQCzOtnC0vxBKeieQA2UsdcV3tMnakhJISiApgaQE9iUJNB1AYBr++FfGxEfng0nkJ0DpkaP1FyBwoaG6uAqVFTX+NMwJlCzpBByaF3sKS9HMW4L7W21BjruYOx4qzMt9ExJZsvvmQzmN/B9iMxEQltKkVOQdcQdgyQPPeR0u+VQiB5isOymBpASSEkhKYJ+SQMIBAreca8CXK0vx5FsrxGGkMxtGawqg+7qnogZ7isujssyHmgEjhsLon82roqayFrU1pK6XeZtOyYtjU0pwtn0jWrAS/YiNxk+g4d4YKSNEpKKEtKHN4exrF5kh9ZiIUGMJ+nsGqJIdWV2ugJzdE0KXkyxJCSQlkJRAUgJJCfglkHCAQE39XejG9Q9+KQh89AiAWCbBXV2Dyt2V0Mjwn4BiEDLT5TpV9WBXaU1QM4ZMvgaSFxNyd2Cgax0U4i2Q1ISo7WVNAUsFMsc0h62AyJDIVzK28atwIvfI+wAlKwFSTFaZlEBSAkkJJCWwP0sg4QDhp7W7cM9LP4ER6UCMxcioULGzBK5awYKYiEJshzaNoby0Al6N1PoGM2JgayJoUNzlO0vFGJtXiG6eLeTaGPduERiQNRmOLmnIGNUMKoh9MUaZ0rgsWcjsdRNkR37c+5ysMCmBpASSEkhKYP+VQOIAAmOodmm4+anvsHl7OY8IiEeapMrCUl3VH7vQCV4o+uFvQA2L6oWrrBI1nI0xkj5LINaEUy0bMTb9LziZS6dxljk9tBwvT0qNwXFCHjIGpeh0zrHLwZnXG5aO46EknRZjF2ayhqQEkhJISuAAkUBiAAIjRzjg4Vd+wze/bYPMFKgSQYTYCnN7UFZYCjVOF3RzQKRMh2NlDdwuDbUuTffwj6y/hmtFF0cNzlT+wDHWHcIBg1FGpjh1mpI8pVmRPTYfcrP4+A4wyHC0PgPO1qclxDwSmRSTTyclkJRAUgJJCewLEkgMQADDR4v/wf/N+xuM2AUljbMORleEEp9u+jVllaig7I0ifWFcCtWkqAyWWg92V9aACA1E9kgq4XMqECCyqoJpkRItkSvj2IISDK5ZiVS4wCQljiYRCWm9c+AclqpngopNFARsLLKC1J63Qk5tH1tlybeTEkhKYB+XQDK8eR+foH2mewkBCB4PcM1DX2PL7hrOKhhbEQChurQcNXtqIlL6N9Su0SOiTE4FULx7DzxkB6DbuQEMfDTKwtAgtO/0f0ZSJ4lrReh5GqNKCZpIU0AaAx1fSJKCg6Ui3Ji7Ec09O7mZhaIgiIIptiISMGVekA9bN2uDPhLhtsEpomGBJfsQpHedoL+WDH8MV36hnvMtnXq4VtB3x+xLEqoDyd8nJaBLoLikAnZnOlKcIh6L+1H5c8Yn5ZSUQIAE4g4QaK3NXbwZL81bCyVmrwOxo1olCSXbiuByx0dNz30PNBUWlxclZS7+oSjErCB74UixISszHVaLBiv3KvBAUtyQZQ9ycrJx0EFteSTGypW/QmFWeJkCr6RA8jrhkW1wuTWUFu+By0OmBU46wDNI3pz9J/pKmyCrXjA5PhoQZ+t0ZIzJhWrzxBSqSHwU3ATEZGQfdivg7JD8TOIkgU1bS3HBhLl8hQWSUqmYPvU0HN6jeZxaSlaTlEAICTAVMz/bhEdfWIbWeQ7cO+lstMjSkNHMAVvMBuCk9A9ECcQRIIi70M4SDy6/53O+IcamOxD1UU4DqdKD0l1l3ClPT40kbvImpb2s+z3Qn+KmL4q444t/iyRLEqwSQ01JJVxuN+xWFy69+CR06pwBWfKiRX42OnUogN1Jb9RXxflrNhIf+fQR/PGKChW/r9+E8go3GLPj55U7MHPOMkiaHX0t2zE+82841RqeQ8IgihKpnyMDDTRETQFaXtIR3g7uGLUIpjANay6y+twLwH7ArHczZ0RT39k3bS3BhQQQmCXAqZS0Ti88dAoO61HQBHLeT7RBDWq+Vd2PpwlEFecm9h3Ji+R4Z102EzuLqvUdkaF5Tip6HdwCQwa0wgn9ybyYND/EeQns19XFESCIw/uNueswa8nmOAhFHJhEcbxzcyG/4dOBSiGEZA0QEREK7AqFCKjQNBleIhCSJJ5YSTxBLIek8pdBKZRlTUVeVhrSUYW+R7fDVZcP4u9SPQkpPHKBOsuguSQ8+syXsP71B4aVfgOttATM44bmZZA08tOoDxBkSYZiVSBZFE4uZYRb+rAEk+GyudFmUicwJT45IAioODqPgz3v6ISIZG9VasC4bTv2ID83A1ZbZIAs2n6TBuHCCXMonpQ77hqFtFYvTG0KgCDAX3mNF2W7K9G6VSagCKOG+IYal8OmbVVwuWI1iYWWns0qo30bMvjVLQxl5SoKd7u5Jm5/KiTdjm1SYKE9qmmWW8PiYcD/vbcWr7z3o8+HS1ywxBoYf3EvjB1xRBgrYn+agWRfY5VAfAECYxh395fYRambYyqU+Yhu/l5U7t4FKwUBWL2olbyolRV4ZE3oJyQgxW7ldMFejXH2AfEd+rULHklGqubGef0OQb8eB6FDq+bIznHyB8PZIGMaBn/ZSCBFPSOzg4zafwuhbNmElY88juqPfoAMd1AuQwlWWGw22FKt3HmSgAEBIErgRJs8S7Mgt0U+UofmwjkonTtHClQVS68ZLFmHIq3rtbFUsk+9S1uglwF3PvAFflxXhLNO6oVrxhwSm5jCHOHeBwiioy+8+Ss++GgVDuvZDm3ygSsuHYh0e2iAcMn18/HnPyVhjjb6x9q1yca7z50hvoM66/fjL/7EA8+siNlgGX3vonuTLjNzXj0PBc3Soqsgjm/9s7kUV0z6DJUVHp9ml6erB4NFrsaCdy9FWioZGmLaPOLY42RV+4IE4gcQGPDXDhU3PLRQR6X1h8dd/PgNX9zn6EZFt2JJZlCsMjzMA01RkdU6CyWu3fC6PagqLoMw54c2WJA5gi96iiiQgI7NMnFkywzcOOoMyPGJCIz/nFXXYOU1N8L7wyrUrv2b+22QyyDpSgTMCV1SO6Wh9aQ0sOx0ODNbQJUUaLIMyWKBJFu5apEbWiTaDoRpg28NQbQWwh8ByOnzMGDJjBVthO58gp7gyhuJYeuOcvy8phKPTV8ELylZuExV3H/T8ThpwEEJvzEJH4Q5PIfGXtEgMIbSPW5cfP2HKCqt9Umb1kGHlil44sHz0DKnYaBw8fXz8cfG4gTNkr/ag1pn44NnhwVNC/LxF39hyrPL4xgFlPDh8AboG/vo5RFo3jw4QKBtUGWA4ZLEv3bjk6/Dz0JRXEbhFwXTe/Rz8+5oMnr6qnt91nq88Ob3PmI3/o7EoEgSnr3/dPTumRsAzBrzWzTX72/ZtFcFPhBnYQeeA4ahN5JG/Ku9oY6GM4DQ4NrfJ/MlsW5Pw6nH0JwJvV/o0gCzX0Ov8i4EN4bFDSDQgrr49k9QVk13+2CHuUE6ROo2CR6pFtn56djj2YNaiwbYFDBuGqCIAOEvYC0rQ0m1K+yDkoZIDo3HdGqBi084FF3btkKGwxaeTENLPUFPCFm5tu9AzarVWH3LFCirN3KQEG4heXe9pxPkHiJ9Nn00TLJAVmyAxcbzLqRm5cMrW6BKIi22QRBVrw09gZYj/wTYO1ygR1zsq+iqYQmR9LZtq8SEuz7BriIXX0/mA9pqYZh23+no3YMSVoUr6cif2xc0CJMfXoRF324L6DwP75UlPHbX8eh3eJsGZdCkAOG5YUH7caACBAIH1921VNd40k3JjA5IFJzMnX+vfDdodIPn16+AmBjzPvzbms3wekQYtglqQJZl9OleAGbxxW/pEVt1GpRUbuLhRxQjx2vu6e0zVdGuT+HhlCGWPyNJUEyMsrxZ3j2/o3lBvuGgS2NncDodSHHakJLihN1uQ4rDDofdAbvdApvdAqvVCqtV5uZBReFHBtIdurI57E9THJ6lVUCNC7BYALLg0n+Khb4JIWfzhdKXE8eU1q6ho9oAb+a7F/nF1T0RuSj0+eR+c3WKMZt8Fszzbl4m/B3/y1zy9X4fhhcMR4PBF1jcAMK/u1y48oFlAHObVrJ/wXNuAJuCWks10vKdqPDUwEWLiW63En0ABoAQi9yhaijdWUQxBEGmPhB10b8s0HBo61zcfuGp6Nwik6vjDRpkEVa47x5ydLH15WhkGra+9Dq2v/gO3Cs36LTNpo2jAXl4ZTcOfa8zVFmYdyR4SXkISVLBmBeSZIOXWZGWnQePJQNQHPyL4MtLRE3qIZz0ExnMkoKs3lMBmbw1E3iChv1hR/qg0MM89eJ3mPnJ7xw0mdk8afPt2rEZpt1/CjLTEje+vQ0QNmysxpjrZunao8BxHtI1Dy8+fBo4SZi+aupK+eLrP8afG0sa1N/5v7HgxOf+xGeNzx/XIDQIEP7ElGe/jWAd+knQ665dkoAYbTg3t0jXXODztOLmvTIC+Q2YGLwacMzZr3OtZ2j9qP8wMDR/dLDUTcfCDxbfweOfb9KuklREaKMo9D5dxkhGfnp4/YSsc/gQSBGKX90IQWAgoLb6EWZ0SRHV+Dtq5OLhYCJg0P6+0oHINB18kEnVFCovS3SRFC8S4F829xLYzF0OZ8oYw2uz/sKLb1LywMAVQnX7MZS4pPkd3TkjjxC6MSTePyLW0/uvq16EP7zou0xAjxzsGYEsHYhRO1wTpHGNr3E+C0f6QGp/H8Aw1DpUJ2mIKe8hP9vEOzI5u9MuJ9F5IkCcLJOcqV0B3iipEH9Xv4DSz2++djAG9esY9PuKD0BgwOxFf+ClT/6EQq71hHglBQpToUoqMlqmYJenGMxBk0u328Y/BxKSVFqGshoCG/ULvW0Fg5cvVg3tc9MwacQJ6NWuOeykMdgvDzRjnALhugqL4P72O/w09hbYKsr4whQWw+AbG32szSZkIGdQqOgDWq4aNNIuWFORmtsWHljgJUdO/QgVX40FqV2ugyWr6/5rl2Tg5qk7H12MJcu3BhwKxhHSo1M2Xnp8GLl0JKTsTYDg9Wi4+YElWP7z1nrkYrRZvPvs2ejQhsxIDZdLJs7HH39TWvPghdajcfcM9gyFz1oo0Ri/OTYM0gkgvP/csKAcaB9/sQFTnv0+AhODuGwIrZGYWAEMaDM1HJINc6QZHKn6NSU+i4EO49mvnouWecFNDLQ2jzv7Df3gTcjyO6ArpVn6Zt5oWCKcLjpnX3p/nXDYTBY8eMtAnND/oKCSiA9A0IAXPtyI+V+tF1hUYrA6GdR0DTV2F8gtRoT0GbaOxmfU4lVRWVICN31BQQp9eB7ZgnynBYO7tsatI0+GIuIb9/vpFroOgfa5s2VFNX4YMx7e+SuguokoKtg2LI67tCPT0GpihqB0bGhD51obMRfCF0SBV7HBntkSmj0dpLvjdwQJSGt7HiwtT9yPZSrWxNZtZbjmzgUoLKo1+V3QDYWgEnDmCQfh1muOE97mcS57CyDQzeXrH3bh1imfBWEeZTj/jG7432VHh/xkyG/DZwENsvRoldIt9IyR72APT6AWWNo3A96cPloc/I3dC+jWY6nfHXqFOyBrlDclvO+bVv/sT3/H0y//4KtQrAQNt1x1JAYf3xOnjniTQxsBXETXnHYJj9xxMo7oHp/EZVSnjS7RDXSbaF0GDE8ChGg/uWgBAk3282+txhuzVkbb9AH0HsPUWwZhcCIBAlM1jLpjASqqLJCyGCqc1XTFh5d8ChqwbdSVsKHustAmUFuFktJyviHUhwjkWCPjoAwLnrr6XLRulmWiRj6A5s00FObxQlu1Fl8cfTbSVXI0E2q+ur4eBBM6TsuHrSVXNDawMxk7tf9PoQYGJMUB2eqEktMBXqiwZh2O9O7ErJigMNAmnK4t26px/lXvgTHySSHI6h+T3W7FtPvOxuFdRXRLPNXPTQkQDL4H+nPLtlqMunYG3BS+4TuhVM72mZeXipcfHYqCvGBhhdFNypAL3kJFdf2vtV1zFTNeulTXhYd3wEfXA/9bGtPwwfyNeOqlb3w/FECG4fVHT0en9nkYeM7rHCiT6t0oDruCp+8ZgkMb4qaI8x3E5QWOO4dMDEbcVd2RR96gX8LGJcNcp6E3i0TCRo3B0J15PhvXCosWQ6HESPolvtLvPhodofFYyHTaKyvx7rzVkTWoOziLlyK5TJi/C5KBWW7BZFLXqTFSJ8WGTOrB5osAwvEY3L9dUFnErEEgcXsYMPz2T2AtsKJUraCIvKiK+FYZWFExKjxeTl9sOHDQrwTjoYYrhvTBuJOPgkKeJf+RQrYqV0kZdky+H1tenAUL1IALmZh6hlYXFSDtLLI7kSknfEdHQ4z0Dh0izpz2cFubI/O4532uUvu1qJmGpT8W4Y5HF+px/f5FKtaWijeeOhdd2mfo/ivxGe3eiGJgXuDWR5Zi2Yp/Avg1RCyLF2NHdMGVo/rFNadJQwChbTMvZr48LqSmIj7SFrWQ9uT5t9bjrVnf+xycje/jq9ljuBSOO+cNvreYHVeddgXT6gGExPkvkQbhxnu/ghbwLfNYZmga2azpkCeCIwZNIx8Axm3zFPrAbdcqg6aSdoX+TqHeKryqhrJyD1QPmXnNG7G4NNA6pyge/4EtDm7DFEMyMfwUDBdE8YTZFGPMlunA4eduXQAo+i/eNg5Gfz2Cml7sWxwiCaN8fRxhgHbffIl2aD0vn3cxbzYy6KnhyZd/xQwDIAQxees9Er0z+egIQjtjDJEDOONSZ4STCmOYmA8xTE7s7/8cTOSAgRdC/yVQNrTzvp4FCkSY1qhOf8JEI0KO6nzw1oEYcmzwHDwxA4RqAE9/8gM+W7+VD1OhhRzgKRvupy+Enap5sXN7EVRyrqCf6GpF0iW0Sk/B/aOG4LCD2+i36MgnKNze7JvPkVFdRen8z7Dm/JsgeSrqdZMkcuh7HeGxVIUVGlq3AvOmKSlWZPW/Hkqzc/dzZkWxyXu8Xtx0zzx8v6oiIDJG2KuBgvwUvP7EmcjMCOXHEf7qaEoNguDZkDDn8y14ZPoSfvqZjwj6oo4/pi2m3jYo/AGE+WSDGoRmKma8TBqEMCuKw2N0kF55+wL8tm6Xrza+l2geLJ9/GShXzIBz3uBzHgog8ONUA3YUetCugGwg8RsIv1x5hW+EeZMXIEcAHePv9AP6H4EG0pAI0CDAg/g7Hfsa1qzbhTsf+xaq5meFEULQkO0Enn3kDN893nALF0e3aMs4pPgbJr8RI9keHZb8aGIUpeA/ssQ2TU555AxH3nPE26KvPnKq446HdHD5W/IdhEQkR06J+rnBh83HKU48+rcxVlVT+LP0nxsWHN0zS3DRRbBuSE6luzWUltM+QKDLcIQkwGUV9TPGuVPo70abqqpy8n2Tmyc8bhWaSoCOnlOhegGv1wuvl/6uwu12w+Xxora2ljP31taqcLs8qK6tRXW1C9U1NQGm9JpqF8rLaV/nHoh8YCIyQgdaXL5CjrQO/M6RdCEUwICPp946VbhPjpC+cFc1Jvz+mwfj+P6dg0owKoBAAlI1CT8UluKlX/7Axj+3QnNHDOMCO6TH6mslpSivdQUgN1qcfTu3xt3nDUBBXlYES+EAfFRfNIULFmHbnVNR/RP5fZA2we8q1uKqZsg8QeYfa0yFeBPy05DW8zAoKaNhs/UxqcdirDumjkX/Mm06V982D7/8XiZuVDpvhvG1nHBcZ9xzQ1/YiEgjDqVpAQKw9u8qXDZxpu+uIO474v9TnTKemXISenSm8LL4jM8QUaMahFfGxUGS4VfBNIbB572CWpc1AACkWCqxZM4EkGp/4PCGAYImOfHCq19hw8Yy1Oqcb+kOhoUzxsRZauGPKZwnCWxcedtnWPuHHxgZt91UpwVvPHkO2rTkHPLJkpRAWBKIGCBoTITPPbB8DX7ZWcFt1WWbdkDSIoRxQbpnUzVUFJfA5dFVYDp6GtwxHw9efhacRKmYLFwC3HiwoxC/nTcOld/8FJCsKXdgNvKvsfOYh1gKIXyPwwpnX8KbTthTRsDqHM/PFh8CjaWBvfTu7mI3Lrt1Pv7dVcHNJ4H3bIbR5x6Oqy85xGQzjf4wbSqAQDcMr8pw/vjZ2LaL9Hr+otDvJAl3/a8/ThvUMSGHXKM+CKRBaMJCrpLHDXvdpFClxhmGHFOAB247Be4QGgSPnIWrbv2AmzNN+V3x6bujkZO2b2otaf7ve3I5PlnyZ32fLMZw6vFtcccNg0Wcf7IkJRCmBCICCHQord9Ti4e+/gklXplH2hNb655/CuvYu8Js3fQYaaNklwuVxWUgZQSdbXYZOKd3Z9w6cgjXswhug/960V3ReDSkBqnGhVWXTED5rM99tM5KmoL2j+XBkmvIKrpNjaverTbY+9lAPAv0b1k+EmmZN4Mp7XwhYfvbnJAEl/+wCbdNXQK3l9TGgbZaRWK4+3+DcPLA4Ha5SFZgU/ggUO8rq7y4ZcoSrFxLhEh1bMOyioG98/HInacl7ANq1MTwStMChJIKYOhFr9fRkjA8PeUsHH1IVkiA0Dw3BeeOnwGvZg2Y6uGndMSJbkwRAAAgAElEQVStV/ePZPqb6FmGr1bswJ2PLYbHQ7uyYaMXe0XrFg6899z5sFkMfwABmBqmVQ7mbyDeCVxAgQYs/2B100iQ3Tpwr4huX2oioSab4SZ+MwtFEJEYntH0qy+2FOHFX/9Ctddv35JdXlRv2wU1Iq/O+g0R+LDvKUdJZTW3XWlMwYWHtsFNF58Mi2JNAoMGlisn9qh14dcLx6Fy3lc+G9OhU3uittPumBe5bJVhOzoDmkXcSol0gyktkJF5D5hyhO4MmbBzJ+b+N1QBye3jz//Ag88v990Szc/aLApeefxsHNw+Nk//RGsQ+PepSXju3fV4cwZxBQQWAnU52XZ88Ny5SE8LPPDiIlx9jw8dxRCX1sKq5N156/H0Kz/ozl96SC8kLPnwEjhkBrdHatQHoUO7XFxzx0Ks/4dU9fphK0nocXAzvPzI0Hi6IYQ1ngYf4pcEBpcq4fSR76Cq2qMzJRoHNOBQGKY/dAa6dcnm1fidBYn+x6ROCKZsDIn8/d71flDi721wDWZ9WGK40JF13wAh0VAoxybM5NvBJBASINBLBAdm/f4vXvtjs5kpUxwYNW7UbC/mEQexFKumYc+OXfBCgVXWcGGfDph44SmijVgq/k+8S940DGuvuA5lr8yDBi9sXW3oeH+eKVlU5OYGHv5oUWA7zAmkCWOscQeRpCzYUv4Hu/METlu1PxZisnvoueX4eOGfQbqv4bDurfH0lBNh99FcRj7KRGsQyHdpzpeb8ejTXwU1KGWmWzDtnlPQrbNPnRT5IMJ4Y1/SIJw//m1s3k4hnX6iJBkeLJ83jqvfycTQWBRDr+4FuPeJZfj8639MMmXIy0nFCw+ehLYtGyeXCkNccXmEQG55pRs33PU51v5dokcbmcMbGQoKctCuRQo0D7GpSnA47bDZFE5b7CTaYqsVFsUCxSrBYrHAYlGgKApn2yNeEPpTlhVBoSy8GX2+8iLCTOwrhrMnP+S5M5wIK/Xv3YYTpHk3NzxkVFglhnYHZaJbpzxw1ucGcgPERXDJSsKWQIMAgdAfHRAak3Hvsl/wS3ENvOQ1Wcdiq5ZVwlUS6BUeduvci5jBymTYXLXYVVzG/z28Z0tMHn0mLDxDSdLvIBx58oPb5cG3J54FtuwX/tke9WYPlKXuhkzzZgqFCac+A5gx2ih6OiDnGCQ4hlqQ/rTDnjIOtpQxJv72cGvfN57zejVcddt8/Ppnie5JbgAp8hSX0CLPhg9fGxl1TorEaRBE/97/+A88/eoKaGZ3fB3Kkf38tvGH4eyhvRLOFbK3fRD4sag7nJ466n2UlgtHZ6O0zrdj9v9dwM1JoTQIxIPw2jvf44UPiOrcWA/isJt270k4+vCW+8biZRoee/VXzJq3JqqIJeMb9x/ze29YJFu7zQKn046zT+uKy8/ryamDhV05aYrYWzMTUoPw6qq/Me+vQtTqGQbrdlQrrURNKSUJiq4I7mkZanExKl21OK9PF0waeZIJqSb1B+FKlpsbVA/WjhiH0g+/RO6lGWg21KG/Ho0cReYPqasMa36dazT/ZinMJh3OlGshO8/mAUD7o75nw8ZduGbSF6ioMnNLkLxEVs2Lz+2Fqy4+gm9UkabDTRRAIEnPXbAej04ncCAScJkLhQWPGd4TV445skk0cPuGBkFDRbWM4Zd/gPKKmgDzwCnHd8Hd1x/FgVKoKAYCCMXlGk4f9WaAoyOtiP9ddTzOG9o23E8yQc+Jg/PjL7figWmL9ZC2yDWECepcjNWKkORUB8Nt15yEE/q3TDpWxijRWF5vACAINdUbqzdi9l+F8DCVZ/+rd0khBVNpFapL68fjh9spovulTbimuATdm6XhxevPh4XrmPbPwybccSfqOZVpUIrL8MOAYchoVYLmVzh0EpTISZNE7gcFUhcbrC3qbEA8zlkWiWaIljljCmTb4P0SIBBG3V7kwrmXv8N9X/yFCGRU2CQLZr92MQqEGTeikiiAMOeTP/DI/y1vIJSV4ZJzDseE0b0iZHyLaGgBD+9tDYLojIafVxXihnu/hNuIhNJ7Ofa8I3D5qJ48o0moKIZDexDVsoT+w56DB0YeBXGRaZalYP6bF0UvqLi8yfDHlhqMu2E2HyeBngMFHgjx0P6v8Wyjh3bOw3OPnhqjh1tchP6frCQoQKBj4YfCCjz8/TrUcofEhotUUoHysmr99hi5DAmKWN1edHAqeGL8mUh32prkxhN5T/ePN2ijoPmr+H4l/rjuKrS7qgYKd06Lbgvheocu9voAIUAcEmS5GVIzH4GkdNN/s78BPIa356zGC2/9ylnpzNZTwfIGvDT1dPTonhfRZhVvgEBSnTl/PZ565XuoPBWf4eIlDkg62I7v1w53XH8s0pxNl+p8X9Ag0Kx98vl6PPCcn0GRB+QyDVeM6o6x5x/F12ZoDUI+v6F/8Nk/ePKFZfoN3S/nr2aNBom2KYv5a/ptbSFuuO8LVNcEB/0iKMegYzeS44mbuUEKZgAqofEzmA7pp0bqX/PoDEZEUa//Pz8lsJnxtvEDw99nnguDPyw0cwblu/99ekLBSQPb4Z6JA0xZFptS8v/ttuoBBFJT10oSRs5ZhtowtkKppBLlZVVRAQRhWtKQrWl44Nz+6NGhpW5z+m9PSkyj12VKm0HhR/OBnfdCziHfkcg1CMYmonRxQGnRCEiEGxpLgSS3REbu25SiZj/TJAjvaabJGHnNO9i41etLmSu2RGHfbtc6He+/MDyi6YknQGBwY9Zn2/DkC1/rUUOBoI+Y6I7tU4BHJw8GpcUVHsUJ9uHRT659gWqZGAnnLtiGh59f7Jsj7sXEJDz74Eno3auA/zy0BqGAn5Mbt5bhgmvnQNaIcMkfuXX9pX0w8iwCwk1JKkDcy0DZnlpcdsci/Lu1VD9aA5cjP76JcFWhzJQKLKwGFuaFh3QneoplfhRzB06RYZNrIDhDH9UlGPzEz3THQtPfOaufwR5isPrR4U5UjoIp2MfJKLITi3p8jH+m6x8BN/51ScTT4YFFswdk+uXZiclZUVLwyF2nY+AROfujBTOi/WJfe7geQKjwqrhrya9YX0FJgULfAqPSIPBqRZ5qB1yYeNyhOLlvr6TmIA6rI2DGVBXu799CxbZnoMoaNxNFpkcQGF8+2AmZJ4BqoHBHItqQZFjsZ8KZdjP/qJt2A41deFx2DJhwxwL8tLpQZy839iQxvpMGdsfdNxxFSS/DKvGKYqipVfHWvL/w2tsrdJORmGmuQ+AZOiUMODwfN1/bH83yUvTfRON3EtawzJc8LqB9gmqZAXc/uRwLvgqMSqE1vHjmGDh1Bu1QUQzCxAAUF9dg7M3zsbuolnvkG+WwHnmYPvU03YEx0TL2f9HEwHvHE0vx/c8bg+7N4gYuuP3PObEbzj6tEzp3aKb7+Jk1TUaf9TH5HAH1ERpNGsQzuq+gAZZ9SCDo0MXLOrbwUUETFuCghOeTENTKXk3mFMq7ivfgh5834qd1ZVixcidxBfv9R3T3S4Wp+OClC9GmICXsBRpuFg3zzhYwJJN4Gms04hWgy9eXlyFg09YRVoOyrduTiFtvZCj1z/t6AGHpjnI8tGJVHRVrw3VGo0GgY8fKvMhRKnHTUUXo2/+m/e4wCXuV7sUH+QJkwPr/OwutM7ej1uqOOJqBEiJLITQI5iESy2Za1rOQLYfvt4Dv93924ZrbFqLC5eEHLyeI0iz8kKDD+JrRfTD6nO5hzWx8NAgqGFMw5YmF+PTrHfy2ZyTiotsX9ZFyLDxw2wAo5EMRzz0j1Cj3IQ0CXbEHDX8ZNV5/Lg2SjSJV49t5ggGUSlgaBP0Ivm3qMny14k9+GzcOkvZtcjB96lBkZcQQ/xpKrgG/Z6DETpOmfo1vvtsERokN6hVxg6d+TrnlRAw5Nl/PG9GUiyGiQfke9uERePHwU4swd8kugDIBG/TxfL0zjL/gEIwdeXjYjdz1yFwsWloJj0Ky0TWozMI1JQaAocqIH0RRhJyI/o+0HYoiIy3FAZvNxgmmLFYLbFYbbLLK/06/p/8oBJRc5igclP4tSSoUiwU5WRk8/wQV0mzZKEIjxYEUhwy73QaHwwq71crrd/IQUwo9BawWgHIQKlaqE7wO6prBImBmE+Dr0RCeKc8V/7FJucUjRussA2P89GO6OHKZUGIo/e+8Dvq7nyiJodQDTPjsO5R5wyfpjQYgOOHCwJxvMbTzenTr/SYcKa3CnvTkg5FJgCa5dutP2PjW2chsngp7tlNn5g9dj2FtJB8ES10nxQZe5weqpSfSsqcBiI1kKHQPE/fEl9/8ibsf/wYeVTjM0rjat03Dqce3xxkndkdWphEd0ngf4qFB0O9k/Ga14OvNePDppXB5xRdPpqMLzzoEl553iE6EFFrrF1ephQAI/nTPcW01aGXE1EEUy4H+I8Dgo5th6uRTfe+ECxDohcefX4oZC+jG7i/E+P78AyejV7f8hIeP0trzahIefu5HfLxwHcjtxLD3m/tkJLXrcXAmnr5/KFJTyO9o3wcHxhh8q5apuPPRpVj4zVZzKig+pyf274wHbjkm7IV098Mf44tvijl5lF9LYPwtmK+FbiMxeVmIbFGcmEEc9r4MueSkLbpiyF78y3Cwr+u3wd/mAM74bg19bh1DoWl85vmjp+g/PeeOL8+On+uDMxbpmi5ZM6k4g2SrFGHvomUfh4WvI+IipEhVOkBgjBMdPfz1WiwpKYFVkwNssI3NiFpaidqGwhx56lDqgJenEKY2MlCO23o8g3TnLyjoOAMt2owIe8KTD0YnAQKQ696+HtpfT0OxZqGg80FicchGbq/gWwlXWdIN9eAUWFuE78OgSW44rBNhz7hkP9qi6siWATM+3oDHXlmBVJuMm8f3w6mDO0e858ZHgxDYN8oYd9KoN1BVLWHsiG648uIjo1sYcXxrX4hiWPJ9IW59YEG9NTfr5dFoQ/mp9BIJQNi0vQrnj58VICmKvHr4vnMw4HCKcEjEISx0+pxRVpNw77Tv8PmSDY3OFgfzGsMFZ7bD9ZcfH8eZbeqqNCxe9jcmPbFcKBH0QqDI4VSxZEb4tN13PfIpFi4rChp919Sj2t/aI0yhyBWGBoFhc3kNJi/9DSUuU5rOMEallVagprSqwSc1aLAyC+jQGJD1Kwa3/hiZzrXIybsR7bo/2gQIPIxB/CceUfHHC6ejtnABbHYLMlp0gy3NQLPBfROEj7wGqasNtoJwHbKIlIm0CN2RlvE4mJKbkC000VPGmIZaN7Bg4WoM7N8FOVl0IwvT8cDUuUQABKr+703FWLVuO87iJEjhWlsTJ7W9HcVA97XLb5yJ1X8S/4H5YPFi8ZyxnDUwGoBAZ9SQs19Fteqfe/ouunXIwCtPnaWzF8ZbrgIgUNsPPfsTPlq4NmQDwjmR4aE7TsbAoxvxKA5Z095/oLjUgxHjZ6CqxiBnoz4RJ4kXKz66POwOJgFC2KKq9yAHCFKlHyDM27IHz/+0jiiLIvIHCA4QhK6CDgoLk8EsNRjVciH65L8OlwJY0AkdenyIzNwe0Y8g+WbEEti16hPsnHs6N8fRAkhr3gYZBXncRhbsJkTqa1WygCIXrc3DtLdyxyYyUTFkZE4DrMfslwBB2PYMxacKMCWqZGGbtpbgwglzAQ6STQcXGJ6fegoO7yE868MrZiDgt9wm5hYbXo+Mp/a2BoFsp2eO+wC7dpNztb8UNFMwZ/pFnErYKLVeYFAj6Z6JKMlXGPDw9BWY8xnd4HWzjr42ln04BibcEZnAGnuaASpjmPLMD/jsyz+4aSlU5nbRMxWP33kajj1SOFnuj4VEW1UFDBv3Hqqq3foQhGpdklz4bl74AOHOhz/Fom92N5JIMLQ5juQaaAIwSzX0+/vjHFCfAzQItO1c9NG3KDMDtjBH5tlTAXcx2SqEkwOvXCfYoTCW9vbtOK3VPHTIXezzp8jMuwsde94V1Y0szG4lH6snAQ2a14N1z58BVryQH1YcJGS3Rnp+HiTK9Mbnr47dS5ZgOcQJOatxPoz6AmeQlD5Iy35276SGZgDlWqiuDW6zbaoFsmVbKcbd/CFn5DPTlNN99uG7h+Lwrs0Dk0k2Vcf0dhQL4HCEBzGWr9yN1Ru26pTU+rfOFB4u98bs1fDWISeiJzKzLDh3aC+QTZRJYoMhc6Mmaejfrz26t0+Py4j/3VGDMTfPQ9UeVwAQG3ZSd0yecGTAACMxMRDQXfdnOS69ca7Js56OYoaHbhmCwf1bxymawedpArcbmPrcD1iwZF09Pg4hLHMKPf/3Smr4R+8+Cf377N8ahPJKhrPGfYCqmkC6bIXyaXx0Wdjr5Yslf2L1pmLADageL7xeL1wq84Vv0oHlcrnhUTURXcEjLCQeYUF/Jz6Uykov/v63kjvvBRaGDHKxIjAnCe1UdTUltNN9FfST0DgRfTurjin43UMPE6Xvh8cj8QPUFBLK25T9/TVtzbSfGIW/q3te+iGL//fmrtd10BT98nlTmnwtGCySbmJYsasc938THZ+3XOtB5fbiAJRFrhiUHKWzpRBjezyDVOtfXEFEm4IsdcMR/X8DJGuSYzvspR7bgwZPPT+Jaovx68PNIOsuBRwp2iQ063AIJJvfccVY0JqFwXZ4KqTUKNAjAzLy3gOkDrENIMq3f1xTiwmT3vc5BkVZTUyvGVwfwW4h5AhEmolwjTcxdaSBl4f074AptxwNCaE1RC++sRqvz/6RR8IYm4qRs0VhMtxBBkK4k4CBcOQy1PQqv9Xdee1JOPXENjEPizbzhV//hbue+MaUrVBUO2Z4V1w15uiAsMBIAALnQ9hWgnH/+xhVPuWEQNd9D8nDtPvJ+TFOfggMcLk9uHfaz1jyDYEDcq4z102EZAyjzu6F92cvhxuB4IoAwlNTTsXRhzaLWaZ7rQIGlFVoGH45mRjqAgQ3lodtYqAvTlxqiA3WcPALPlOGA6B51GIxf7JoA6Y8swJaHRVOfq4Nc185F4pMpkfz5SlYC8aHQTuxeNZwMeZ/qxdy4D/666+t+r5gdLaK4h+Hn/Ze8FqYGuVRpASICAiJcFOVgyHybaLcNASk6D+3SyV+C8bu/WYNfijaE2GMvGhT8Wqo3FzEMa0mEWuZWNYDc7/BsIPeA5N38TEajpQtDnoVBQeNMQlory3FOg2bUXld1ZEf3fsnl/62922/EUuPAVvn3ojS354IeJXWf/PW3WHJcoCsn3TLI49dxSLB2pfSPQfadkO1y5WCBD4clyIl/cpQjyfk9z+uduG6STM4MN03Sn2VpFnztjf6eGL/gzDl5oFhnXHPv7kWb878WTch6XsOmRCDxVGZBiN8WXh0vL5Pie1x0nWDMWxIPACChtlfbMOjzxFBkog44fsuNDx6+yCuqTDnCYkIIPCwSA033LMIP6/e6WP7I3t/14ML8PyUU5DijF3VTPLZtasWDz7/E35Y+bePYZBukLSnco0f5dcY0Qujzz0MJ54/HR4TQBBchAzPP3gGjuiZYzowjLOhrkd8XeW58Xv/WBpWrQdbqfWf9nn3B5yZAffZoEu+uMyLEVfMQFWtyCArFicd85EABHPVodtsyAvrvY834qmXlvoq4wnBZA0jTuuOmy8/KkyzY2OSbBhc1jnXA+a0bqSO+KW/nYZzxgTrS7A+6N9qWa2b3bZ0HTZVlEfke2BIzCHLKPtzJzwU/8lkOCQVJ6R9iCFd3w08PiXAIh+Mzod9Amd6p72xFzbeJv8uaEthQoXK1yQZ6w31i1+IPNTIZKKOfXtoOnHQCEvWfYVtM0/whwbTeIjIRAJadTgULMUCSG7+ScpWBbZ+qWByoG03rB4zGRZHP6SkP6SzK4b1Vtwe+mGNC9dOej9u9R2IFQ3p3x4P3DwgPIDw1lq8PvNnKPqBFa08CDjSgTf5+sEYdkI8AALD9fd8ie9/2aZ3iY5byrrA8O2Ho+sl+wlNlBToF0IaislTv8CX3+0whbEBDhvwf48MRZcOphCJCIVC3yNt5rt2VeOaexfi360VUH2sp7TniBunIlswbuQRuPS8LpCYBf3PNOeJMBqV8cojZ6BnVyMddXA1c/DjXYDoACVQwM3WdFyFOmPq/t6ERWjejV/Xv/eKmPziUhfOuWomamqMm7kBEFxY/tEVEUo4lscZRt/wEdb/UxZQCfFQXDuqJ0adc/gB72QvbSgqZbcuWwM32V6i0JRZNIY9G0lLoMGuAaPafoBeBbP8WToN0UpAauat6HLoVP+hG8vcxfldny7A4wF27Ubl4iWo3LENFkYKHBWqpIj4Yw3wKgryeveG0u9IwEnMXjqgiHOfElad6sIvTwyEUvl9vSYID2U1aw9nfhbfYD0OK1KOFjeyyIsKWeqMlKxnICt5kb8e4xtJgBBagCf2b48pNw0Ii/SSNAivz/4JxDsTzV7hO8biCBAEGZiE/sNfh5fnpvBrKnLTPPjk3fpObZECBDrSlv+4DRPvX1Qn3T3D9IdH4PBuMfB9MOCr7//Fwy98j9KSch6zb3xqQrtEMF3DxPHH4awhHWG1CVt1XYBASdNIU9b38JZIyyCiKGG+Mj5cH82TJCElxclJeMzF6ZBgs1lhI0IgiwWKVYGT/I8sFlgUBYqFSIEMciAydQiKZon/TIKdaEG4Blm0qNA7VsbfJwIhiyLIh6yyxAEbMZGS6Z7/qZvQ6d/09527gdET3g2iQWhagEDwpP+wVyltlE9UXBsmMXz86kiQmeFAL9KPuyvY5K9/Iw+BqDQIxHNeufFfZMm1uKLjO2iZ+UV91n+OGp3oPaCQeKuiPGziOBUmh0qii9LKy6AU7kL1nLnY/tXSQJqtRptlsKdnoPXlo4GehwEFeZAkO99suSYiulM1jgOtX5WuKEHt5u+x4fW+Ps1B3SczMlsjtVUeanM9yDo0NaQXddCW+AYlIy37HcjKQU077wz4cY0XEya/xbn441FosyZ1L4HFwMINKiICKIa2DBIWDRaTOp5aEquJ2o53GXwcaRDIxBD6+3/53bV4b94qPa+H6AvdfxWoKOchafXDQBWJwemwGqTQevfpWJdx4/gBOPX4WDUIDH9uVnHRte/6ZCbU7Rruvn4QTj2BOD8CS+QAQSjbBpz5GjzmWzWAkwd2xn039o1q79RUhvVbPLjyxvfgDnDxoTUmw8IYFEXDHdceh6GDA7Wu/Yc9D89+TEQWzTqWUYsVHzWdufLL5YW4/aHPAlK8E2hz2Dz4atZlTbufRSOwOLwjfbipiE3/mUJ4olWUMziKi3Bp/gtom74QXkKBdU0+DMjMuRYdez29TzgmGockampQ9uKLqP59Hao3b4PENGh1+9+IkClKgzvAEJmQw4HMnj2RecapsBzVl2eAM9NixmGu4lyFhnVPDYCr7FtwR7IgtdvTclFw8iGQWlZG4Yhl3GAYMnKfBmTKpBftGot86NRSaYUXq9dujxtMozq9kDHpQWHr9he6vXkx4uRu6HsEsYJGO06Gb38tw9xPfzX1mUCJBT27F+CiMw+ud/OLXDKBb+TmpaBHx7ywNrtdRdUoK67QtQfiCsokF0/5fdUdS1Dlqh/p0jJbw9RJQ7mfgsTIoYuWElF+SygoyEZmpjOmIdAXeM2tH+Pn30tMa1Q4SS94fywyU+p7Tkbqg8DHCYZrJ3+Kn1bvDph5m6xhyYdjw3DxrD9Mj5fhkqvfxd+F5PPjX08kT5U0srKKh+8+Bf0Ob1VvDQemoo5JhPvNywpqsbyJAALNxiXXfIA/t9TW2RsZLr/gMFw28tAo9sT9RtS+jkr3L13Fvt1VrjMehjcAcV8S22COsgc35j4F5l3InTEN73ijJuEvJOGgzp8is+UpUVDNhNencJ7ybdsuN7DuF2x9eBq8JaU8Mx6TPTwUi9Sn3jD5cFRZhkUlZzwRJ69avZC8MlqcdBKcF4+AVNA6nG416TP+o4uh+Nvp2PbF1Q23z4AWww+HrRXxlxuGxHBv4/rzTEZa+g2QHec36Th9h7RZWxSHHmzeDpw//rWAGyMddrKs4r7/HYshAw8WB2cUbRGwnv35v3jsucWm2G0CCAoGHdcB9990bD17ehTNBLwiHAfDm9MAp6k6JunBF76B6iB8aW3yvZj50jiBC0xCEU534bbc8CjJIjji6tnYsbPSVBlDizw73n/2HDhS6quBowEI1IMf1pbh2ts/DOw1Y3jzmQvR5SB//odI5oQ0E5dPnI01f5PwhIAIjGSmWnHPDcfimKPaBbVzNwwQwp/P0P2se9PT8Z3+YvDf1v9p4LdgXkUBK8pUa+B6NBJBNxVAoF4RSdp5V85FUTE57/v7Q5r2xTPHwmGPfe2Glv/ef0K6dNYSthMWeCVSkYa7rVFmQAsskhv/a/842qqfoLiKbgh1BqQ7pFiUzujeZymsjkhIYeIrHJ/WwFWDsiemofirpXzaeahZHItRna15HtpMmgR068bb2BfNDVWbfsQ/rx8VkLikrijSzgHsqa2Qntm2TjhP+EKzWc+DI/PG6C/W4TeV8CfHTpyF3/+qDkxLCyAj1Y73nj8XudmhwwUb7CQDZn2+HY8/J3gqjEJ23UH9D8aUm/vFHSDES2B7iyjp1zU7cMN9i1BTS9+x+JYJzA47sQsmXX2kyHhTp7i8wMBwiZJM7274excuu+lTuHVfB94WGIYObIu7bxwctSgLi/bg2skfYfMOCgNn6NwhC5OvOQZdOlG4YnDw1n/YdHjh9Dv86UCYZwDg2Jy0KBTRYXTLX48/XsFctznSJ9CXQ4AWI1RQjJqKEINowJcfQgT485+Zo4cE97+Ql1F7sPC8YOM1In0sqMa3H10VtZzDfZF6//3PW3Djg0uguQP9bdq1SsM7z5wFK2VU+g8U6bwZX7Fynrs2vFuE+ACBDMse3NjuaeTgc76ZVRbZwGSD+covOarV4hiJXn3f2bvipFnfvQv/3HgL2M5CkbfcFH4Zr84ZJmj+wTCg3U0TYTlxiPDI2dcKUw65orkAACAASURBVPHLg52guDcF7ZnHBmQOE597elo7ONMKIEUDqKRByMh9eF8bfcT9oairQee8GZR5Mj9Dxry3L47gKwrS/IEIEJqpmPFK+Pz5kU7Kp19vwb2Pk8nHf3DR/jT+wu4Yc34gQZJRt8sDDDznDX54moGY065g2j1DEMCkaOpQRaUX10z+HOs37va1RgfykYe1xVN3D+ZZ+CItRLhE8RZE1nPFzXPhdKbi/psGITebNB8N7xl1AQJ31pQYHFZypqbsnwwqsXfyfUj8jgqlWvZficyXIyLkCfQf1+EWf4/7qPEN05/K2QhbFce+3leJzEwG2Kjff/4bnaGUTLR+PZJ4VmPk2Bx4VeXzJANWVoNvPxofqYgjf14DPl6yBfdPWxzgf0AVnTfsENw47vBIjsvI29+H3pDOnvk1q5X9qUwb6hstFjuRKshWeCUNE1s/h4PtIpSRQEBFiX9Z+OrQ1Yide32PtBxKKBM+CImbjPREVIrLg20TJ6Lmn784MQXZ/GLwJ2uwewY7r8DJKqwp6Wg7+RZIfZrWBh+u/HYvfgbbl14XVCdubQM4jhQ3BQ4KMzrBnkL2atosyFkjPH4Bhj7IzH1ur0x/uHII9Rxtnou++Qt3PkqRH54AtSOZGC4d0QNXXNI7VDWN//5ABQgvX5qwuZ/63Ep8+PmqgL2F9qrPXhuF3NzgJ3a0AIEm74a7P8WKX4pMAEFDdoYTLz96Clq1EJE/0Q62aHcFcnLSofDbReN75bG6BsFYUMbTT91zKtJTBUDQiKOCFq4JBxBBjlGC6U7NhkQzQDCr/wyIIUxEAjD4e1vfxBC46E1P8n3EMDTp70nA1u2VeOzF7+DWmTnp+yIHYQuaCiBouPWx5fh62d+6ppDOC9oDNVx+YTdceiHt5XvhLIttd6nzdiPzZFp+0vCZS1g1Z4MKVchxxo1UMIwteBs90l71q6ZlwFVOLGB16uC39IPRu/+GsMKoQvUgmt8TnlWqq/HPTTeB/fWPoK6M5hYcRePC/4JBVhV0mD4N6NBpn1pXfB1oVfj1vrSgKWRTDgGkzoHYISunF2wOJ994hF9C6OJVeyMn//nQD+6zTwh10Ivv/I6XP/gZBKcDPy8NS+eNhc2XuyHKgRyAAKFtMy9mviJ8EOJd6Hbc/8yXwJgDqkFXS0nGrW58OftyPdoiPk6KRt/fnrMSz7y+2gcQeFIlopp+8hx075gRg4NqZNI5ZtiLUOFPOW58iZ+9MxrZ8WGvjqxDcXz6j41luOzm+XC5/ayD9L01FUCggJIBw16m650+KvG9E8/P7JdHoGU+OdaGBnFxFEkCqzLvZCK6yLyrSyNmfMnKFcGe19gpzjP0QcKpmXNwQv5jsOo2L8M+5KkEiBmzrto+K/c6dOg1LYEDDFE1A9xzZmPLi6/UCa9IfJcE8hU6FluXg9H2ySeJ8STxDUfSgqbilyeOhVIRyIlA86gcATgoSsy4VtBfZSArqxesFPgcJkAABiIjj0wM4QGKSLrfFM8aW8G542fx240o/rG0b+nE+9PPiT23SKMAoTOm3HzMPrd8DPk3bTZHEfb587o9uPbWD7mGi5TShnX72jG9MWp4zwaXRrROinQo1NRKGHTeG6a6xQZ7+aj+uGxE010AGgIIn783Gpkx0DI0xfcUqo3f/9yNK2//HC499tPvg9A0GoS/tnoxcsLb9cwLdqUSX8+doFtI9l+A0JDe1wh0Np9Q0ujZS9gO2HjMbTDyE9J2MW5XktHH8RPGtJ5Yn+cAgKsKcBF1tukwoYXQpvMbaNbykoSfDWK6zDYtHRl5PPhn1GhoZYFsWKEWaVx+b1LDkww733U7PF3SIHtqoLhLAFYpEJUlE15bJiR7LpQMOpGdurxI/0CR5gkEFQwonH8LCn96NGDqKNQ/ZTCgZoFHdtRVSGU36w3FQtENxnJr+PBXLMOQmjV5v0bd23epOPuyt4KAHIbrLu2Li87sGnsI7/6oQdD3yYYAQttmKmbG3cQgGr3ilo/w2/pS06cqQZY8+PTNUcjObDiqIHqAIJo6+9I3sX230A4a34XTLrzbE/ilBmxJdQGC8ctFH4xGemyRo3HZ+mKpZO2G3bhq0gK4DBOD7hBpZzX4JsE+CDSfE++ajxW/kp+J4U4pLgQ3jO2DC87uHsvQ9ol3N2134fzx9RlmKbz2+suOwAVn+sG1NHnRj+ynPS5OcRkMIBB6cykaDnP8i3EtL4UNDVDuakBlmQOaVOs/TSQZbTt/jryWQxIuGB+eE9pgYSJnwPZpT6Lm04VNZlaoN1C9YyyjBplnK7BmuqGxSlg0Gzyyh9OmilznMmxyBrTUVnC2GAC5yyW6hY9IcxJTxJ1Lw/avX8LuxcI7WHeABoWsp50h/h0McVqsQHbukZDk0L1zpFwFW8qY/RYgkJzOvWIWtu2srhfnQ45pj99xPPr2JsKf0LJodCYPQIDQrrmKGS/F1weBPqnaauCiiR9i2449ASLt2iEHLz40FA5Hw9EksQKET5fuwH2PBu4ppEz79J3RyElrmpvlMcOmQ6WLRJ2yeOZopEYXcZmYTSaKWgkgjJ+0wO+DwL25JDjlGiz9MLFESbTXXXDlPGzeQbwaAu4JlkovFrwzBtnpTQUBoxBcmK/8vbUaIyfMrPc0KQMmXnEkzjvDD4Kk11ZvZDM3/Cv8VIPY5mm5Z7EKXN3mYbR0fFVPQ2C0QltjebETTPIn9VEsrdC9zwpYHG1i3TobHrr+PW7ZUYt1m4qw5KtN+P73bWAUtsk8UFQZw7yr0atmJ1q5dnLWN25n8SWZCVOqUT7GnXhyXEg7qQK2PKEIJRIXotzRJJuwZPEQIHKoUgGJHIwssKe2Q3rX64CCo8BkEcsdiwNUQ92n9ovXLMK2mSf6uC3oWVcLIPuYhgdN852SlofU9M6AROMJ8uFwGavIyH4cUI5L3BqIcm4af00sLPr/TVtrcNH1s6BS/mhzYUBetgXz37iIfxcxwgMObBsOc9xHTQwhNAjtKIoh3hoEBqz4ZStumbI4gIGQTHpnndIJt00wFm7wwzpWgLB6XSHG3z4fHuYH74STRw3vjgmjyRk78eWYYf8HFfWRwFezR8MZjktZ4rsYdQtr1hfh6slfwOXR04PrV6gMhweLZiQuIoY6vOHvElx95wJUVVIuGv8X3bq5He88cy4czhjCmKOWSHxf/GNTJS6+bna9Sun7uWn80Tj3tC6+30nLd1Ww+5etgsQoBWv9TV5hKq5p8zg6Oz5qlCWBELS70opaF3l4iyIrHXFY/99Faue4Fv+HT8aP9z78AzMX/o6yCiIbISeL+nfeLK8XPdlOXFy2FIrm9VHXJiKSwRgqo8pzqpFxVjmsqZEjT0mRkNphNGxdDTKjyOsIS+y1u/GbngLamLvMU23wOOuHrfpXjjgQnakdkJpOFNN1WxK6BwriSst5DbLUNXyXhbA6neiHDNUP8NacP/HsG8sDNCAE9cj4c9+NA3HywPp0vlH17gDUIHAnxZfHxQE9BUr048U78MATRM5mrFgxX3de1xenD/FvcMHmIVaAsKuoEldO+gLbCynBna6GloBBfTviodv7RzX1kb7Ub9hL0GAmgRL9+HrOJWhEeRJpM3vl+TW/78KEyQtR6/UDBDqsMxwqFs4Ym9A+LVy2GXc/8hVUHzGcaO6sk7rh9gkUNhvzNSCh/Q+n8t//KseY/80N8qiEW8f3xfBTBdkbFWlNYQm7ddlaoWwOMvbj0pfj3PxbREINsyE6yHlArgp7yCSo0yxabMPR65jZcb/5iq3Ai527vZj82Jf4a7vwLyDGOYPPvm73RM40BlnyYkzVahxd9TssGgGJxgYVjrgbfsZr9SD9tHI4WxOMiXxhCfODCmf7c+Dodj0RSkRVT8hRMA0r702Blbm4NJgdSCHzQijRkHOYRKaGPtwfoW7YIyNNCWuFtOyXoVjyQ3ZjX3uAhk+e8qeMfBvlVaTk9DvC0XwW5Nox97UR3DwUl7I/AgR94E1JlETzcs5l72NHYS1PMc83Mv79q1g279KQjpyxAgRaE9dOWoCf1lJuGaNoaNsyG9MfOhm5WYl3AggOEBiWfjga9jgtx7is6SgqWfX7Llw7+XPU6ho7w61NAITEahBemfE3pr+zlOdv8VE6SRKuHtkdl5zfJ4rR7HuvrF5fhstumRcUINx+VT+cNbSzHyBsKtnDJi1bjRJTshBKOuOWFOR6qnDXwUNhq+ul1tCYJaCcQoR10q3UrAfQ5bBJ8ZcQT8MsY9ztX+DvbcVhHvJimXFwIaloo9ZgYvlC5FRXw6tEd4A3KAZNhmpxIfP8clhzw+MKaFhIFICrIOfQ/wFtLoi/LHXpfTPlaGR4fuC+KCldrVB7esKGNMSzldu8bz2AoEkuWOS+SM16FJK0/8VeUSjnxHs/xYqVghjHXAQZz2EYff6h8btUJAFCiPXNIRuqPApOOOc1Tm9uDlk++tAcPH3/GSG/kVgBAjXw0LQFmLN4J88pQYU7c8sM7z4zHB3aUrhjYku/Ya+Aknr54InkhUWzYum8S2AxOIsCumB2Jg73smLeu/TcG6Y6g2lqG4qEM+4awVs28aFLwKq1O3HtnV+g1iveEjs3aRC8CQUIxOcw+PzXUV1rQBLRW9KDLnpnNDLTw5VbYuc+1tpXriEn0E+CVjPp6r448xSTiaHG42W3LVuDP0uqfD4ItNhtkgsT2j2Pg6z1bRWNddBTJcIdqXQ99EukZEdPQdpQO24Pw22PLMLKDYKwJJLCb8h082USWmo1GFH1PXpWb/Vlgoukroaf1ZBylBeOI8vDuIaH1yJjNmQeMx2WvEPCeyGipxg2zb4d5asE26HlMMDeKfyklnRYpmV0gzMlI3C8TIZsPxlpGXfGHgIY0Xji8/A/m6u4Ks7wpjbXalUUvPbEyeh8UG78WDIPRIAQVyZFcZDc/+TXmP/1JsHXpe/ZdN97f/qFOKglqd0b38ijpVo2z/+OYhXDx7zl02AYv3vgtjMw5Jic+CzARmrpVzcNMU+Eo+LbD8dACTJ8OuREIU2qKGYFYaijL1CZyHfRAC9/f60hhh7cLSTgpV/X7MR1dy2EK0CDICE7VcOC98jZOTGlpBIYOvJ1fWx+aulUSy2+nHNFQExDYnrQNLWuXFOEqyZ9GrSxO284DqcP7uD7naRpGnvwq5+xvMSvriPR9E75FSNbXONfbAaoCjEGTw0oSSL3AugzoAiQ8+I+6qU/bMPdLywBpY6MxoeAwAGTvNyeZFFljKlegaOr/opbP2vT9qDFJTWQ5Ci4VxvoBX1XjqwjkHrcs0CA7TEO3WZAxdqPsGnmmVz7k3IiIKUGj15oqDXOj5B7KKxWv+MUZx+z34q0jOFx6GQTV6EBU57/GfMXrhVsdHXKJWcejAnj+sW3U/ujk6IugaYyMZDy8OL/fY6//9nBY3+MY655tgXvPH0WMjJTQgKEeGgQaNjHnfkc3CzNv5kCaNHMgbmvJD4xWV2AYKS4nvvWGFgtwvRH+gUCC/RtGqCB/m64mhnmdPqTLoX0p/n89vN+6cypja12E8IwKJuDWSgDdRICtviNRHS/kPDzmkLccM/CgCgGGl9eBvDJ2xTdlYDCgMde+hYz5/9Zzx18wsWH4pIRhyWg0b1TZWMA4cHbT8QJ/Vr61zRjjP1SWII7vl0Pj+SFVVNglapwW9u7kWf7LuIR0GRXFAvu7CMGkpNbfBwUjYVEf97y8GL8uGYXj8EPZSYPbwASRtauwoCKtbBqZIeP3Ign7PUSkM6Qe0E5NIeuRgmvAyGfIt8KRcpCat9psOZSnGoozB+yysAHqrfgt0fawWMFsoaFabXRazCwozO1AKkZbcW2Tcx2LAXpuR9AkltE2Jm99zhfZ4xh0bdbMfmRJVy1aXDOG+NsnZ+CWf93bthMkmGP5kDUIFCYI0UxxKn8uq4Q19+9ELWm1NI0Q0MHdcCdE/tBJgKPECV2gCB2o+ff/BVvzvyNp3Y338cXzxiNFOIRC9WRGH5/9LBXIXFOz/9GoUtdXq6Mj18flZABE3C5eMI8/LVV+LMZZg2JeTmvRg7PjXFglMYAwtTbT8Lgfv79WiKAQIv73JlLUWGh0EAJl7X5DIfaHxQpoCOViQTUlAAqa4Zegwp5IpL4FN1BjDLbjX6PO5FonMApPvXTWC+t+hn9qn4PemMMOQYm8xzu1sPKkD6gGhY1BYyH/8WnCLOIhuxD7gDaJeBGrlZizX3pSB2YAZZXHvm868PMyTsKFht3GYOGo5CV90SjDJ3xkU4ca2HArlIPLrxmDiorXSITp28XliAzhisu6oaxFxAfe5zL/ggQdOTeqAYhbjwIKhYuL8cdD5GDleneKTFcd0lPjDynT1gEuLEDBIEHfvhtO669+3NImkUnkxN9uplCxYYScVac14epuv8iQMhvZsOHrybCD4uhcLeL0zvvKvbnLKcdrE2LDLz25BlITaGLbgInNHFLpV7NP60uwoTJwU0MU287EYOPqaNBoG/8vTX/4PUNhWhv24GrWl2ONCsx/UXQaxOIFtEM3XHE4LURVBDGowxY8O1mPPR/34a1EYRRo+8R3n0GjKn5Gf3L10GTJSiU0CmCSjyZNWh5oQuqhYCLYaeLoIIGHzUyoktQsvois/8z8V+rmoaVDyq+7I3R9JpkSARKmXm9IcOJlIwHYLEft598WPpJx4A7Hv8OC5du8EXfiN8Q06iEFllezH51XFSZ+0LKdH8ECPqgGmZSjF8uBrqsjLhsFv7d5d/EBQF8Lb6efQVsYSor4wIQAPy9aTfGT/4c5RXG9y6EcfKADrjvxuNiZ9ZsZMHUBwgkB51JVre7mh04/Uebf08z+w0E3+fCtCuHXNixP0DAvEULB+b8XyIAAvDtj//i5gcWQfWF8lGqbBmnn9gZk6/tFz9H5NhFEXMNy777Fzc9+GW9emi2H5p0Igb1rQMQ6CxbtXM3pnyzHn3TP8CZrZ71J2KKojt00JYXH4Leg3+L4u0GXtFX8N1Pf4Gvf67vVR6fhmSkMBdu2PMlOtXs5iAhbB2KBDQfWQV3bg1knmM1McWDPOSf/llc43EFlPHin3fbAj13xNzx7LxesFm7wZnzLCwK5bTf94vBQ/7i26vw2ge/BnjHc18KHv3ixlezL4fNajwd53Htjz4IITQI8eRBqHIDg88lJ7LA465/7+Z4/K5TIIWZUj1eAIFWweU3LcCaP7YHOOH26pKPp+87ESnO0OaOaFdQfYBAvSF9LZn2RHQDxfIbcMBvNPVfXIQGVuxVMidrI8kKEjn6eTDivGj7G+t7dJtv3TIVM6efF2tV9d7nmVqX78Hkh+aazIakOZQwanh7TBg7IO5t7s0Kl323DTc9uKheF0hT+thdp+DYI/0h6bqJATzm9L4li3BJweWwYEtk2oO6TUmAp2YQuh21JO5yuOyWd/HXzrhX67M50QfVnlXhurJFyHATEUp4xdLWjYyhlYCV4kUTp4oi8qXcYZRYKXI/icZGwqBi3XwL7G3DG29DTwktghO5Le9CauZNkEyhWLHVnMi3ycrG8MPaKtx838dw1QayqFHLTJZww+jDMfLMHoAcX9n7RnYAahA41XIcfBDoGJs8dREWrfg3IImOIjG8/9z5aNPaGfZXFy+AQPN2233zsfjn3b5wR/qZzcLw/vPD0bIgI+w+Rbq66wIEkTOHdh4ivBMAgW7dwr/W0AQYZDbCcOz3rjG5UHBHRaGJ8DO3yr6Qpv9n7yrArKrW9rv3qekehu6QEgETDAwMFPHaqFfMa10D6147UFERLNRrYMe1QUUJg5LukmZoZmB6zpw5sff6n2+tvU/M6Rrg/mfd5//VOXuvvda36l1fvB9XTnBQmLw9LpAsCCB0aJeD/75BSdESXRhG3fMjNm6r9HAf8E8wfPfu5WhdQo6v/ztlzoJdeGDs734dojn06pgLcPwxhe7f3ACBBr1i/zuoOpAYrmuDdB7a952aQB8EMTF9NQgxeUmEHGma+5TWs7vzIO6vmA7V4ILJJUMhLogmhW6WqkxubAZkDq1ARjc7nLIhYOrkRE0vUiPmX7CcUzILwolEFSe2ruwKJu+Mq0K+f0hAu+4rIFuO4Vk/k7ZLxtVSIT+VfOGZDHIpPe2ij7w0Z55NlbbKlnmNmPzxzXF9MezLRyJAaCYNAqWSv+VfP2PjlgqAIpCYDJcEdGyZiXfHnY+83MhJxBIJEDbusOGaO76CQZY4SKBNVpVUfPL2KHQlX68knaPHX/ABJC+gKr4LLJgyikcwJKtwjQQDXC4XFBfj/3Q4nTw1s93hgL3RBVuDAzZbA+obXGhoaEB9vRV19Y2oq21AVZ0NdXX1UFVaeQRkJGzbvhMuzoArQVIJ4qTBLrWDyyd6SEb39ln4ZOLfEt41hdKG09pXKSpO7PM0rdNZPWb/eEfCv3dIK2TArIU78a+xAS7vkoy3nxuOY3rlueetF0Cwoa76bpTvflconeLQktP8tJUeiz4XLkmsLBjw86ytePED39TEif2ICPkxSE7cbl2CvvXbtOqDCUQGy7eh8GorD53kIZSJbpBXfQpyUTzc334U9ycZ8NfCfJgy48t6SeCgUj0Hs+0TcP/xvRKs54i7l00qECO1cVst/vnoL6itDxR5IqFnl3y8N244iCwyqeVIBAiaQJKd7pmcx37+vRTf/TQf+6tNQovAVJx9SieMeWBIVMOSSIBAx8mpF74DFyivClfw82PvlP4tMe7JMwDtNh9VAyN4+MQRH/s4U7sBwg+jDqM113QnDIBc3BcIAuxUJMxasA0PvzAfio+pVkKPjrn4+LUREUgnukem/7EDT7w826050d++79bBuHxY1+gqOwKe/mP+Dvz7+Vl+LaWheH/cxejTw0Nq5wYIDsdK2GruhqOxBjVV8fkO0KJpmNsd/W7fkMBQMJXHTtI0OvOGTznaSxZQFnY7GflqA14qnwxVpoPff+SFLxBDyWUq1OJKqDCByXbNhpecmcIy+qHgjEkJ1/BRwOimBR1hzIxPg0C9fnvXe9it9sZLQ45Gm+zDWD1HmUpdwIXXf4HaWjvPreBbJMiyC28+MxT9+rRL/sZ7JAKEODUInO2cVlsYqw3/DL9RimD9PxZuwNjXluLJ+07BScd1iGovSCRAoLY/+twfmLtsP/IzK3HbtSfh5DP6wSwbEhTgHXgfOeHCj3x+aC4NQvhdzds523tQtYHWfB3c9WhkC7p+lt747c/NeOylP6EovuuxV+cCfPBKeKbM8G30PEFBfDfdNxlrt9TzKDHdR5FMGt++fwVaFx3G+1c0HfV69td52/HIi3MCAoSPX7kMR3UmqnAtSkiEOQJ229uwW9+Hy6miumopVB3QxXAdNtiBg1OLcNyT0TMdBmq18MYlFR7DHpsL/3jrG1RbJVgUI4yKBFuFDZJNhqQShtcyJjIJiiwcTUSJviP0xojGTRhRs9gr87t3CxnkfIaci6sgp0cdEOrXLlJRUkw1t/5JBFMYXJIDqtEFZxoROwHmnEEoOXoMILfhfRUlXqc50k8yrJhjRG4BOScJB+xIJaabFagl+xxnYuLuh1GnpOGRQb0wuGVejNM4ma+Jnm0prcW9T81EmVdok/5V6r/RqOKBf/TFiPOaj4P922m78dIbv7k3KuEmK+GswV0x5oFBYfMMJFNqoeoOpkFo24Lh2/eu0+zW5OkCVNVJ+O67FWhUVewuM+Gsk1tg6Mktozrk4+lnogFCPG2J9d2gAOGw0iDE0juG3+ZswWMvL4BCun+v0qtrAT6YkFiAUGd14aYHfkbpbkoiJM4JiRnQtrUF748bgZyc8MycsfTykL1DDpkEEMb5AwQ6YD5//Qp06eBNdscBggM15SMgyZQDG6irqYDNujXmPjSuMMO1VUK/p2yJ0SCoDE6XC5NWbcc3KyixlAoTUarBxDccp0wpnI1Ia3Sicl090hwGviEZFQuI6IIwQqSHXdNOt1DteKDyF+QrdX7ykFQZxl4NyBpaE6PWgBSSFJtFyJVBkQHFUAdnmh1qlgSnsQyQhMOcQW0BBgeYZITEMtGu/cMw5ZO9MX69t7id1WL57FzQhV9Oi05eOkAg5/73qyZhQWUPmBhDp4x0TDx3YNLssLFMUNFXoMYGnHvFx0E9tQmg3XlNH/z90mObtf3fz9iLF1+f2SRxmoTTTuiM5/49GMZAPLqxCCJR74TRIHQocmHSxGtgVSx4/fUlmDV/I1yyANPkRU833/NO74En7xnUbHJOAYREDX7i66HjaOqv6/HsxCVQfWhyZfTrUYh3xg1L4EcZlq3ejbuf+A1OTVtBF0qan+cP6a7NycPWiSpmOUyftRmPT6DstL6FLpxfvnUFOrTxkEJxE4Pimg9r9Wivp02oPLAAijN6pkKiAKiZLKrq90QjIPvnLI+mZ9SCnRVWPPvHYuyorOaAwM2/zujoJN5DkXmL2wAlBUZVhqvBCbUekBoA5z4HTKoIkiY1EpkPiNRIkA+Fao24v11vW4FBtcTpQF/yJmeSkXNZLYwlDRF4IwmtAGlBRPyxDFVywpFugyutgTtBKhYXN1HwOyNvF7WZtASil1QoiyUoSyIsyMoajuL2YyGbiuPfXNUtWD6nGyWPRG5xdACB5GhUgVWOG/Heruv5jZdAnBEM7114CkrixzDRTJkgz3oW+upNdjz49GRU1dp8Pbk1dg0a4zuvPRpXX0rEO/p4JaAJEVQxY95+PP7CDK8wS9GC1sXZ+GziBchMpzkhTGDNXfy3Shplmpkyzrric9TZ/InBZEnlINbBVZJC5yX844VBh95ONymY9c318c/hCAWSAggRCqq5H+PWCYavpm7BBOK68YmUYBh2Ri88cU8iCcoY5i6uxv3PeIi3xB4r4eYru+GGq05qNq1W84haGM8//nIl3vxsdQCAAEz/YhRyMz0/SYyprKbqOUgK5Yf2eMXbbTbU1qwhP6CICh0Sh2y9nwAAIABJREFUlAnQuQ+wa+Dk6EfLAFOLiN4P9pBdYbjzu9+xvaomBi0A40CAsy7WKnBudsLgNEBVVMgqxQwzn3j3pm2grptVhgK1Ds9W/MDDhrj6XXtQMdvR4h91nEMgfESBIN6gl1UjQ31mFZy5jVAkGyRmgYERLXV0hUn1MFouRYce5JNAqC/GQ4MB1WU/YNvGEdy3IZvo5aM41Eke9XIHvLPrNWyz6SEyjM+Hq7uWYGQ/T/rQ6HqYmKf1g83lUjBjfiWeeokymQXyYKGtwYVRFx+FW0cROUqyvFwC94sOzbncw3hWk9uTgIjvvXYdendgzd4ud2s5tvb4AdClS7GpqHE0YuQt36GuQbdLRjdutK5+/eY6ZMZ3l4j4o0c8QGDACSMC+yDMnzIqYLKmiIVzyB4UhxclaCLK491765po0YCbrxqAm67sm8AWMjw1fhF+nr3BvR/wPd5gwMzP/46c/z33A56+/vGXF2DmrE0B5Khi4Q/Xe4W3UoJetY411NwFxbneLxNfVdVmOBspnXIERVPjs9WAbbOo6qhrfoa523kRvBxswwQmzluFH9ZvjQEciDr5kckkOGTApKpw1iow1ACNe+0wuegUDK5CIJ8AUv3TsXF3/Vz0adgGWSVNgKg7a7ADlgF1mjdxaCMGqVPJdODIbICabteAgeBSj/UY4ndLZkdey1dR2Oomnwxr0Qq9dN0YVB54nLcnwwKYvFBkuLoI9/xZ/Ti+Lj9LS6CjyZ4xDGpTjIdP7BFzH8N9O6LfKSxLAp54YQ7mLNoJhysQVwWDyaDizlEDcNlFx8QKtSJqTqiHDlQ24oZ7p6C8stHrMaExMELBc4+cj1OPb5FwJ9VIGk6tIIywa5+KKVNXot6mYMuOGmzYvAcqHACLna/+6gu74a6bBkXSjLifSQGEuEWY0Ar0PbC6nmH820swc/Z6Nx8BfUhoXBlefOgUnHqSJ9NgvI2gw3LQCIra89Ao056fnW7FzC9vi31jjrdhSXqf5LxweQ3+9ewPsDv9b/5d2lrw2ZtX+uzVksNZyhxVd0ABxRf7v1S+f3HEZIJkg66bDajClQFZfe9D50vHxayk3V5RhdE/LUC93XuzTIz0yPPCXmqD4YAEyenJR063fD0W1vtLxzj24J9VsyAx8ncwgBmcyL2yDsYCX7WqgBOU00Lh9bgoPlpmqCvaD9VcA3CWsyiu5xF015I2CCVdP4bJSA6BscGNjQsvQr19CgcIWWYTTFnOsGyauu/BbuVCTNj2IEenHsdjchA1oFtBBp45uQ+yTKSditeZMgJh+ByrLu6bcvCgC/c9Owsbt+7xSIcZIEkuHrtOWiGzEbj58q649srB0X0kCU8/9vxPmD7/oGY685WZLDHceuNFOPskMzLNJpjJ5BCj4oiaTkRD5NcQbNbU1ipoaLSh0ZWFR1/6HVu27go7LzwiITOCnnFRrBv6CxEeEttodpYJGRlpKLRYcf89J6NXt8Rt/qGG5YgHCACONCfF2rpGd4ItfpXiF0phHqazqoFl4o77vkINOQd5FeGnYkB+tgvTPr0x1u0t4HTYskvFVf/8UPMfEyuA2vbADYNw6UXdAuaj0dcJ/dO9Zrzvhvq/ey8o97mqv6Wt6UDPai3l1hbt332qCtgTN0uW51ef+yqD0ylh6uy9ePG1mZxh0/diTKtUxQsPD8UpJ7TxuXxILsdKVl99OySeWMh/m3A0NqKmanVEmwJxCdV8L5TtXAS5J6Pv6LkxcpIzLNpdicemzobLJxohcTsyHWYmB+Asc8K508kzWZJNNdBm2UqtwwNVM5HjIn8DBjnXheyLa2DIbAqqhN8C9xaQnWjMr4Uzw8YdDCPOmR5tF6U8tO/6M0yZ3WMDCEzF0tlpkOHk2hEyDWRFkNKeempj7fCfveOwvaEld6D0zEuatDIyZBWvn9kfrXMym9meL6zcX07ZiC+mrEPZQTIFefwJBAmtWLAlBSbcc1N/nDE4uQl2IhtWxvngR939PbaU1mlgVcxIcqDiGi3GYDAY0bJFAUpa5sMQIcVwoO/36pKD2649Kui8ue+JaViwqgwuRn4xwoMgMg8VzdOGVLa0/XDThAvdSgy47KITkZkhoWunXHRoX8Kzsgr/nuYpKYDQPHL2Pq1eeXc2vpm2j+eaFoyPYsQlicHpcMGl6v5V3m2jpxRYjAyfvH4xOrRJXEQUzcZHnp2O3xYRtbz3zGMYdHxvZGQIE7QonuPa6GVz13/32fO8mk+kdj75MDhlu0DzdCkhqihetwYgBLeH7mvmnTPDAxWMBqPWXPE3MoMa6EJKhy5H3nTxIdnKnEiLCKnqrQ2oqJKxZOVGbc8T55O7b5RjpigDk8YNQ2GBr+pYUp2/sPqqJ8WLATQIdNOurtgOp1MLWQymSZeAjL1tcXD+breIjGlt0Otf28Bkc9SLnwKivlhVincWr4KF2LWE115Ci5G0CDJtfAbIdhccm+1Q6yQYFBFq6L0RWlQF99f+is72cv5ncxeGrPOqtCxuerM8E60hswaNhWWQ1Qyoch3/htAckHo7sRoEupl17PYZDJlDo5azmK3lWDq3xO2wSVM0K4c8D8OYTQDMdozD5B2DxBIKMEY0WV8/cwA6Z6c3q1qc2rNlaxVu/fdkWBt1GloKgRWFGDUIQLRtYcKEp4ejQ+vchM6tuCqjTIErt+KhZ2eh3qGbwbw3Me4dA5lH6Ah30FjLoAEt8fITZwUdm3Gvz8KXM3dwdlHP/tDUMCaglje0Jl+Ogrw0ZGRno01uHR66+wK0LCYCFk3dIZOrLWcO0TarONQgUXY+BRCiFFgCHn/x9dn4buYOzflaVMgPSZ4tlQ5Jp9tEpe+8pIElUHzPDf1x5YV9+OGXqOJSgJsfnIb1m8v8qtQdwj37v64FE1RYnraLV8lB21MCzeOm0Fe/nIi3GGfFpXs0JQgMDpP5dcb9u+c7xNzJ9THe0XpanRx/aJo7krEA+SRHAXqovrQ0YPwjZ2DgMe38ZCE1Wt9k9oZJADMFBAj6G9VVm+ForAp+eZAA688iakAvBnMuev9zNdTc9lFqQQUb+MTZK/HDxu2JmhMh6+HhLXRolCuQtilQFF/NLU2N6xtXYlDNGr4ZGo6qQd5ZHuY9nktNJlijwJ5fCXtGrRdPQfK70LLd68gsvCqGDzFUls3B9r+GcFDpxpUOIJdydgS4MOrPLK69FR+Wj4IBpMoPPrHHnnEsjsmzxOVvEX3HiIdewuJV+3DPYz8CSOMUuKIIrowT+2ZhzEPDkZsVu+08+nZF/sbSVTvwr2emw2oXNtJQMo68Vt8nBw1ojQkcIAQev/IqFRde9xFHWOIo1+OGaPOm8FzSuRmFmQYODOibiXPPOB45FgXdOhWhZWsPr3usbUz0eymAkGiJhq/vmVd+xU+/7w47h4UjuB6X5sLjo0/BuUO6JdQxl9b+tu2VuO2RaaitE2Hw/x8LrWWjWcXo6/rhkvP7BzTfSDWVDzAoRN0b+hbicDSitnI1dOazpgI1uoCaH5tgDAlo9bcpKO53YfTyZ8B/12zFewvjY3WM9MOEZEm1zsMlGxhc6+2QyBzmNXn6Ofbgzqo/hJ1+WC0snb18I+j2LKuoKTgINa0BjCZ5pCEgkTYy2HMSQ+tOXyA955wYamLYW/o+9peSk6OnULrm7AIyjfgWISPgIAbhtd1PoLYxA04uo+Cr7Lq+nXAFEdM3e1SAOFKXrD6A+5+eDoedfCQYMtMlXHxWB9xx06kgm35CDZsxjEDwV1Ts3lONp19fiDV/HYBKNy3e3MTtaAIgDA1aJR3/Qy56D3bVwm96RD5mUCXIRheKSvKRZ0xDj6423Hbd+cinfAgawZcOxBLX0sQJ9ogHCCGiGBYcpkRJT46bjulz9vtFJjQdVTq8TVDRrl0ebh15FIac3COCCLHo58biVQfxz8d+cPPQRF/Dkf0GmSmLijLwjyu648JzjnGbfZr2SqoqG8VkaYOW/CeUmo/BYXeiqmKl31FACEzdAzjnC7WRd+l03n+QfeItMd0e52/bg0d+WxhS7ZKoYdKPCZ6AidReDgm2v6ww1Rl5bC71MUNtxGvlk3ne9cJbauCy2IR6ieK8zTZYCw9CNZIvR2zhXtH2hXGVESlps9Cu2y+wZPaKsgoRxb5388PYv3esW/2nn0GZmYBBIxLjl29hsodN6olX97yA3dZCLTlNaFPEqSW5eGhQn0N2DrtUhhl/bMFTr81DjtmBl5++CL17FHN+38PxAGs6iAQMFi7bjnc+ngVSqClkYZQlLRQyPtPboIEt8fLjBBCCrX3Gwy5nL9iJDNmKi4b1Rv9+HWExqziqSwlyiFlLE6JYQ/pKCuRiFeX0TNLjDhdwysUfcA2fRzssIcMi47UnzsLRfVom6cuJqZbafPLwD6HydM4aFOOqYxfm/nh9HAanxLQvUC2PPP8zZiw4oF3CPE/o/nK60r1jYQNu/cd5OGFAK6RbKO41CSuUAe99vRHvfzyfg21vDQKtLVEEk63bb0wznwoVvV78114gXh0aJ0/RN1LPxcS7lqambV9Zep7U03PT75603IH2Ag+DDv3qkmQYmAvDh7TA9VedijYtKaY9+LkvVZVdzGRpr7ABhcsOyGQ02mpQW/OXn6nB8RegrvMHCAVHXYe2I9+PaaC3H6jCfT/9iTonsQk2fyGzg21Fg9Ak0HZC+bKrf0a2UobiW+ogw8EFzox21BcdgGoizQHZdZpLZU0LyAWD8QS06vYhLBbyLIx2QSlY9eeZUJyz/QScZgHMmaJGAn40Boqajg/3voG/rN3hjNBs3CfDiHHnntD8A+jzRRV/zN2Cfke3QkGuJxnJIW5U1J9vaHTh55lL8evcUqhqNlQ5PtPD0d1ycfeNg7j2K/BG4URtvQqjGUgzWzg4bk6HwqgFFMEL9Qy478GpYMwMRSafILIjSzCbGe66+ThuGjmsi5a50Xul07/TtUR3Iz282s/w6RfTsW1XJRRmRmVVFQ8NJxMgAd22bYpx9pl90Ld7B0hGI8WIxbCPRdpj4bx857+/Q6NiEe3wQrh0syZFHYFy8T/OBSBC2RkBSnH5E0Zw5tao85+1d+gl0rRT/xhlraSINjKdECOw9jeXqkKhenlCKu1CSeHYPKKO9lvhRk1FTxdAY8z9NXjhXom8DYKZlMymXoR6OpAhjZ5kR352OloV56NFpgMP3jMUBYXZbuq9UJKTKsvPZQZURnyuUEetdfvQYN2tqTtFkIK0IhN126z+x5OpGEc/sgtMos0lukI3v0e+mY5l1V6ODdFVEdfTHM05VDjWOSFZBfPb3fXz0C1tNVqPbOQDqBgcqC+qhstSC4mlc9CQDFtxoI4IJx4Z6Xlj0LLjbbFFSbAqLJvdQmNo9P1KRjpgStfcWbjXLfDTwVcwp3IgGmX6dmROQ21VO9699Iy4xiLel8W2ECGiifdjSXrfk+CbtinRF9qy4ouO8XYyCbZC9btU4h1skySqMNXqYWG+147m5cxMUM+bKmqSebYmpMma577PWhS3ap0TN+LDKIb2uMXDpwAd/Nqllh/ugjNHHPZ0qIuDXVKN2t/od6FzEhyiKo8SoBfpXQ4iVAErVFXiIEElPx3VxYECZad0UaQc/VNR4VIVqAr1WgMdFCbuUMQnfJai+A+6fPIwci0aQh96xU23r6l4tRbq4jGpTuQXpKFtmyKYKAoiCuWeVFV+AZMl8sz39lIOLnkuMElCVeUuOO37NLQD2GcArNb/PVLf9LvpT6BtbCQojQ4Ft341HXsa7F70rNFCjRhmklfUvmJVwFY5eJD/ldbluKDLSmScWssnUH3hAbgy65OIeH3bThELklTHx4vBAqP5AnTs9R73ao+lVOz6D3ZsvS3gqxajAWm5CtceGFzAH7bn8c2+k6P+TE8LMH7YYB8nyKgrSb2QkkBKAikJpCTQrBKQKssuZoZITQxeTSNq9YqKZQDFixDV7rfBcZ+pxdnoecf02DrGgL/2H8CY6QtQ5hDe8p5gtdiqjPQtPYUqwRHXfgfYZoZz6tfi9lNXQe1ahobcOthyq7U0tEJVmfxC8JI4C1yQLKeiXac3IFtaxua3xpxYNr8XZOcWfxMOmRRcQJ6mbV3qegxf7joDNi2nRTT9PCbbhOeGHh+1Bimab6SeTUkgJYGUBFISSKwEpIqyW5lRXhoTjz/ZWCoPrIalPgcHp/rHk+pNNaS3Qe87loBll0St5hXaEBXVtU689PsfWF9ej3rNuah59AiiF8ylwrWmEScfLMUDZ82Bo2M56ov3gXEbJoWh+SeqSdRQCRno3AyNgNQZhvQL0aHjI5DMaZoNKzJ1v3ebGmqWY+PKgf4kWJpgyXSUnQescP0b7+8Y7kvFHUXnzmtXhLuOI2/kVElJICWBlARSEjhSJCDVVT3NVOc0QIrtBkw5u8vnlcK+WiNSatJz3SrS9qKvkdv/ktjtpZSUWnFif1U9Vm7bgSnLN6KKm0Wax+JvZBKcB1W027gJo4eugty1jmdijIxVLr7pQFnNKDyPsV4oKbkImfk9YLJ0ghxz6l8BOSp2v4vSrbeIm723XUr7d/r7joyn8cm+U9CgiGyYsZQ7BnbH+R2KBMlHc6K6WBqbeiclgZQEUhJISUBcS522L1lD3QTOEEWx+9EW7mKxyow9C+cCDnGyNI04oHOhRc/r0eKKSVqcRPSnhO5kJrxHBezgQT7NxXKhcYfrjkxEk0lknM114vn6HsWX00DUpWLjsgtgrfvFb8g5IxczYHXFbZjquBQNFt1jNtrZIaQzfuix6JllaS5RRd/I1BspCaQkkJJASgJ+EpAU+yJWX3tnzGpqOqMb5jIYHA7s2byKO7MFCkkk7NH30SowQ16CL5HNFQAZPag5LOebiNuBo2Yh1q4c7I5E8Qlfl4D5+x/AD7sHgqVlwtgq+iRQZJ5QZAUZioxXhx6D9rkUb5sqKQmkJJCSQEoCR4oEJKd9C7PW3AWJIhliCAOTVQtscxs47SodMuWl2+Cor/EDAXS8Zve4AR2vIo/7/5HD9kgZZZ928gBdrFt8Luy2X8Uv+nDwWB0JM3f/G7/sH8gxg8EApHWgREzRdVY3W7RON+GFIf1QSDmkUyUlgZQEUhJISeCIkYDkUqqYreZuqMqGmBptdGbD/ucBd1w2UxjqD9agtrzUBwbQAWNJK0G3m+bCUNQtpm+lXkqEBBiqD8zBtvVD3KoeCmPkZEisDT5adzfWN3bgwcGUhY+ITDI7lsAVJUAQLVVxUssWeGRQj3AUXInoWKqOlARSEkhJICWBBEpAYkxl9TVjoDqnxlZtnRGupQ6o3k6OKoO1qh7Ve7b6hd+1PXM88k+9VwMPhz2rR2wyOcze8khZ+Gzs2jQaZftfER4UGv+FzXkivth+GdbUdPAyETEYZQOyO5Zw+qdoCuf3YxIualeAm4/vGc2rSXg2oNErgd/RfUK8v6NLPSZk5W5bOE4TrvTRno7eg6ipCAJ4qrptT6H74ZufzrveaPof3RyLbAD1xN7RtMO7ZjGOgb2rImsBPRX469pfm3Eb9Iywx4/JTSnM26H3ND76LS6ZgMtOYydMmhZZpxPz8k/T/MfEOHqnfI98/AI/GXhf8cyYUHMuyFznjtwhJoTXGEXbevFFwbTkaVnodSExxpjLvgANdeSHEH2onHrABGVdg5sW0tNoBmejhPItKwWLK3k5yKSyLkHfR3YAcnNn94tWnP97z/OsqtJeLJ/Vxp0alGjCy+pG4K2tF6PWkeHLAkn5pwwSstsWw2WM/vihCfnJecehOD02Eqd4RkB3xPSkbvWtTSKKU05TnBiDF/GqBdpSqf7oJeffc0Gjq8MBAb7EeidNj84NQgst+jWsf02XhaJx2vHqtT8Gc4t1/52pQZ2cIz2ig8kwnnkgtkSRcyQWiKDPI90xOua2BMGo9GdKPG5MyCwJ3zpyrqZvGpp8rylNM2WlNcQwl9zwQpU4917T4p3TJXxro3+CmHLEOhHjrc9PMfY6CyInztcQTHSzgvL1gpF7erAVoWiLJkTyQyKYcVMle/dRW2xBm6TDGzITx7Cr8HppdVP7PbysoaTMAQLF8Fcf+DskaZtXspXIBGffrUDaQhwAgRtsr2+AtbwMjdYaHbyguO/taHXpa3FtZtFPnf/fb/DYD9aA9Usvg53ycvPlUoS1B87Ht3uGosZl4UmxOJWn14lhIBNDm0Io5tDZPn2nuTiWe2eY8MK5x8e4Ncc5XoyhtF7FotIyrxzqnjp7tipA3yJKcR5fJAot6YW7a7Grql5ABK+DgEw3nTMlHN850uQ/vnCFxmxrdSM279wHlyLBIVt4KlynStsUgyQzmIjlkin8/2RiLe3QCu1yLTD6ppqJSJg/rNoBm0yU6Bp3rJaDg/779O4t0cISfFP6cc1O2ChlfJNC9LDdW+Sjf3EaB2TBSp3dhWkby0AhvT4OL/zCI249gQq1jXjrOThz89R7PSkBgzu2QJssComObE/z/g4dp8tW12HbnkZOiCZmduyaDp8brOSEzBrRoU0+BhxdAIPPzTER0LXJfCLSuW1WbNm0Gy6eVyCDzyfauznxGgd5ThigwmICevboiA7tjDzBUrTo6o8llTh40OrZSjQGXgUSOpbIOHFA64jmZDQP2VzAmjUV2FNWCRd9j2XwWDMmUXYH+m9KTE4ZeJ3IyTDimH6dUJSvg+DIO0mRdJNnlMHuEuvB+2JA8+O4o3PQpa1I0e5fGKbNLkO11R+wUgt6dM5G/6OI2ybwXKV+VFYp+GNJFRRX4HnoVkI0+bgMJ+j/JDSiuLgQA/oWI5M+xYtel+93OUCgDiu2yWiwjofEHFGFOzp20S7mCIrGqLGyS0bVnj1oqKENADAY89D52mlIa39CM+HmaKbZ/+KzQt1WVT4VO/+6BHbJDosKTN07FlP3d4PBj/vbM2kkGJDeMhdShE6GArUTRgXGntYfRxdmHjKB/ra9Ek99MysgwdOtpx6Dq47rEvXG17QzpIgYO20FZqzdLjLA6euLEtGA4dzORfj3JadFKAPPTXfJ3jpMmDwbB10MDgcZeGgB082DNiUDT9pCicJEPkJxOJrpkbQ0ZJtlPHDBEAxqkybSjvOvhw+NvfCFz1FrMEPV+EW8G/3WDSPQuyA4SLxmwufYqQZwRGUSrhrcB7ec1I1TtAcruypqcd2k6dqB5cmxyG9axI8vqQFTBRMoI3AUrGZKRf7iledgUNucCMfA/7H95VW458nfULqbDrzgxpTYPsBgMsnIyTDj3jvOwRkn5mkQRAvjjvZk9mqEro0m0P/rPCvGv/cjnPUMNj6fACOlDtDTO0kOcZhq4eM0VKZ0C/LMEu685W84a7CZzyACnuEWDT1xzxOzsHDFjoAiGXpSAZ55aHhs4vJ+i5IbQeH5De55dCa27qxBg60RLo3dl8ZKXx/UT8/NmUGWZZgzzMjPNmPMIxejb1sVzCe7a4h+MuCcqz5EtTXwrHv8rtNw/lkdg/Zv5G2fY9uewMR611zcH3ded3RI2fy18QBue3QGbHZf7iK9xQT2vC/sQktl5MBf6EwZJIMR6RlGdG5TgBceOxtFepBZky5JKiM+RMDl2omGmn9CUukQDz8J9B6oO2W4tttC8hGIJSWjpuwg7FW74HICxX1vRqtL3gKk2FWi8c+w/0c1MBs2rRyJutop2Gc9Bz/u/BvW1xeJSUN5Hbyvvm6xiN/MxVkw5kRz0EvolmnGU6f2RX76oYte+H17JZ4MBRCO7xL3BCCA8Py05Zi+tjQgQDinUyEeunRIxN85aLXjnXkbMG3NFp49VM8oJ26/Bp6qVTc10KoikOBei4yBc2dpN+6+HVrh7jMHokuhCXIE6mICCHWyBfy4bTIfYgcIMq4a1Bu3DAoPEP7+wQzthu4RF5MULgcX30EC38goYZkkCaaUpoWiq8ZeeSZOaJcf01Grmxj27a/BmIkLsWw1McZGr4kIPgGEdoSbQSQZw07vhxuv6oa2LaJZb4FrpwN9zV82PPPKdOzYV60BD48GhDQvJB/eAn7tJFAiDD1USN78cJEc6NejC0Zd0gMnn9A6bO+bCyA02oHPf9iCD79cAIed7Kd6/kMhD9ELHWhpCZV8RCV6Sv//mJ6t8cS9Z6JVC5pL4ZfrOSNjBwhX3voZtu8NTEwYCUBYv+kAbn/EHyBQq7n5SMsGqfdCpKAmgO3pmESJqIgBWHLBaDDixqtPxkVD26Egh+aB50zWTAyi6pqKZwH1F0CiLSIyNZq6wwRnqbXpfhJYwlwFKGPHuhWcnLjHhf+FecAVYSdc+OFKPRFIAsLaKNJU79r4IA7sH4cNtfdi0ubj0AAjzGQnJA2PntGsaSU8a5iEtOIsyBECBGEPV3Ftx0Jc2f+okLfGZI9aWA1CggBCKA1CNACBdHkvzdqIn5au8dLiiYPPzBgu6piJUSPOgYUbcmnjlvHj3EV4e+levgEourlEN2WStk6WMXX035Aewc0vaQBhcO+wGgTKdFfRQJpIoYPyKZKE75Zvx+eL1gWcMr0LMvDk5acH3EfIVyMn3QSzMTYfBP2DNAoNVhfufnw6Vm6ugIHGgAOxSC84CiRuuxZaJhUE2nwzv+qGlCGDemDsv0/UbnwRnFZNpKKDmrkrG/DwU5PhdLmE6UYvkoKuJRKefvhCtG5ZyDVTdgfw8X+n4esfy9Aoy1qmVu8zgMFsMuDpB8/C6ce34n0I1rJkAgSPspPh+bfX4tupy7gmxNM/sq2TpktG/y7As49fiYx0Iygz8NffzMB73+zm3hVijomx0xMQmk0ypnzydxRkhNmZ4tQgxAsQgmkQ9FbffX0/XHyeRwtB49FoZ3jiuc/x5wYVJjIlNdHd0/Q4+bgueOHRQT7+KV4AAVCVatRVXs8d2SItrNTCAYLfog5RgaRKqD9YizqbGUeN+gnGok4JRuWRtv5//Tmhu2msXYqly5/Gj1tPxKLodbs1AAAgAElEQVSqo9y22nDcBuIGSwAhG3JOuFXjkWXXDBNePvc4rtQ6lOVwAAjndinEvy+OTIOwz+rCVW9O5ke5N9o3qhLa5KfhP6POQabJ35ZOqWOf+GYW5u6q8hM3jUCHnEy8c8M5SDOGHo9QAOHNG0agT0wmBhlXRQAQws2TTxdtwztzV/j3jzEMLM7C+FHnJB2M0rjU19sx9rXZmL1os+bbEukcF66ajBmhSia3S2ugaxg9+fjooRh2OtnpI63fVzS79jbg9od+QVlVHQzkb+ClEaIav3v/SrQu8mj3BKhQcLCyAa+8uxi//rkrYNr6nl2L8cGE80JS5icTIOg6tfVb7Ljp3i91hblX58mQwHDfrUfjkmHHaCBAmNeoXWXlNbjz0anYuV8Ho75yGzSgHcY9egaMhDqCyZ4B5179EaooiW+AEs7EcPk/PsGO/U1AsFbP1Rf3x11hTAzrNx7A7QFMDFQF7dn339Ifl1zgb6YgIDTjt7V48b1VqG8QSRa9C827R+86Axec1d6DJYWToqfY7b+jse4xUl6GW7Pi99IMOErrNCbGyF4Rg6VAcbggZ52BFsNfCx3aEWm1qed8JMCXhQpM+fVFTFzdhecnbzAQggSckgGmQE5dXjWQnZuQZjQaBBNUvHhyX3QrzhPq7kNYmg0gTF+OGWsCmxiiAQhfL96AN+as870/a/vU8R1KMPbiQTAZmjoKCgvj4h3VuP/r2X7SJoCXb5Lw0sjT0b0FMWIGLxwgGExQmCGxJob/BYDgHTWniDgPHjYn+W+0gSRMDquMfDuYhMUrS/HIkzPRKJuEaj/AqBVmZeCnzy+P0UeLYd7Sctz/9C/aIe972MlQ8OcPNzSpW+ugBJC2/rQRHwYECIQz5v0wCkauxQrstJpcgCDuoo9P+A3T5+yCzCQf3xT67wFHF+GNZ89zh/T5qjtUfDVlI8ZPWhLQ2bR1y3R88MII5OaTs27wcvaVH6CmIXD/wwGEy27+GDvLAmvo4zUxBAYInvF3wYWnxq3EjLn+2jh66phuuXhn/EWBAIJWiWJFbc1jgDpfo+ENY2rYngbHDoJSgRFRcBGL70nMhKy2o2E5caTbwesQnyuH8EhLxKc9k4H+7asFG/Dmn2u4M1K0cuUaBAlIKyINQnCbqK7SJOx+fps83HZcT4ioyGi/mIj+e+oICxCawUnxnM4FeOiS0yPq2FeLNmDinLV8pOhA4YWPAcOJHVrjuYtP9AMIXPYqsGzXftz/1Tz3d/RVS5qILJMZEy8/FZ1b5R6xAOGTRdvwbggNwoTrzo1IxrE/FOJGGXWlDEyVcMdjv2DZGmKw9S30pbxMM77/YKSXl3l0H5m3+ADue4a4bXzXoG6XX/DDtUE8OoSC8aQRHwU8QMlkM//HUfzdQ2Fi0NfEU+P/wM9zdgYUysDeRXhz7PlBBfbF5LV4ddJSX7OL9nS7kiy89+Iw5OWnhxT4OVd9gOr62ADChX+fhLKawA6/kQCEUCaGUBoErn1RJTw+YSFmzNkYoH8S+nTNwKQJlwYCCOJvHBeyBtQevAyQ9mv2nBCyKk2Do7RWc/aIbhILr28Jlv3tYD7xKaQN6B/SthVt7f/fn5+1cguen7YMdUYTV7tFW3QnubTinLA+CMS02EFy4d2LTjvEsCAKgJAwH4SVmLF2W+AohihMDAQQSINA24473FQ7l05s3wrPXuIPELjzEWSsKC3Hfd/4axDot2yzGa9ccTK6leQfwQBhK96du9Kv/XSjHVicieQDhGhXT6jnVR6m+smXf+Gtz5b59wlAVpoFH08cgdYtQh9Uwb4yf8lBjB7jT36nA4SFU64NesLTGXD8iI9hIPr8JoWA6+Ip14Vc40nXIADgAGF2EIDQpxhvPjcsOED4fi1ee39ZwKgYAgjvjrsA+XmhnavjAwjvo6wmsO9KcgECuBb58QmLMHNOYObkPl0zQwEEj9qosXEJHPUPA6wOEnemoWx8AbQEpSbYd9RxpxZfH9JIF5SKxr0MtT+0Qa8vPwUrLPCybyUStUfaniP9OeF3sPNAA0a/+z0qDEZANkadS4GkIMyWDMEAgg45yHbV0mzEEyf3Rce8+L2vEzUCYTUICQMIyzEjSBRDNCYGARCEBsEXIKg4sX2bIABBSKuqzor12ynm2LfQGBplGX27tEd6hjvoOaCIhQ+CWdCmN3MUQ7gxD+mD0CIbE0adE66KJP8u9iq/HcuzSNzf588w4KFxC/D7vE0B2sWQnZGOb9+9HLnZsWnhQgEE+v6iKaOCm9hV4KvJCwKaGGg/uPJvJ4VUDiYdIDDg6QmzMHV24DDKAb2L8FYoDUIIgNC+ZRbeJQ1CXmhgdt7VH6KyLvDYhDMxDP/7JJQfEg0CQJjvsdgBgj5XhW65tuorSOqrwnYmkSOiPxGKukOCs7QBsmriscrRFwa50Yw946tgzu+DHr98CdVCvGIiajO25RF9K/5X3qARsNpV/P2l/+JgvRXGgkIfB6Wo+snJBmWYi7JgCOCkyL2HefS0AXf2KsFZPTsfcrOCd//CAoSEmRhCaBCi4EEIrUFoiWcvOSmAD0JUIxry4cPZB+GTRSE0CC2yDjlAIL9wRQVkJzHGeuxDTKeRpVBiCtdUJTidwP1jZmDNX/sDRIsJiJGfbcIvn10V8/735+Iy3PvMNH/AyP8iIZQGId4ZlVSAoAGuMa/Mxk9/kN+PfxnQqwhvPR/CxBASIGRzE0NuXmgwPeyaj1FRG0grK+Hxu04NyYMw/JpJKK+N3cQQKswxtIkBYIoGEOYG0iCQiYE0CJe4heoTxeARtY6DVVhrv4DL/g4kqSGgU4prJ8C2RcvUL77kZWbFtv+UQ/nNiDa3XoL2b7yksa6l4EG0i5XoN+59+yfM2bAD+dkZQHYWD4eLSZKcmlmCpUU2DFn+UQxUZ7ok4R89W+PsowQxSEzfibaTET4fFiAkTIMQnCgpmjDH4ACB4cT2rUNqECIUSXiAkNIgxCRKlTHsLW/EhHeWo7peOC6S/zdTyZigU/sCe/eVobaO9lJBkR14vTDcNrIXrht5XMwrav6Scowe80tAgBBOgxCTALxeSipA4IIFxrw8Cz/NSoYGIRvvjBuG/NxwAOEjVNQGllRYDUK8ACHGKAZqLTcxjF+EmQEBAtCna1YkAEEbBZq+jKG66nXIyheQ4IQq0bT2aBIcuxSNSTHSeODAQq3foGDPY1UcUedeMwy9J70FZqa44VSJTAIMDgUY/c6PmLd5N7cfFrcugVWSBWNaLILkAAHIblvkplp2SQxGJjY2s8RwbddiXNy3R2RNbOanwgKEI0qDEMwHIXFCDWRioJsxzZ83b7wIvYKEOdKBcM2EL7BLDZBzg8kYOag3bg1DlBSuF8E1CAzHtsjB+FFnh6uiWX7fs78af797MmwNFFoYjKKUVo9O0qNdlphB21sZOrUy4L9vX6WBg1gWLhAKIJB2eOEPwX0Q4hVUUgFCBBqEgXH4IJCJ4b0Xz49DgwAkGyDE7qSomRiCAgQJfbplYNL4EE6KAScHY6iv+waqYyIkZvPx/nSVqVA32LXkEbFNZn7zZCasunwjzMiEAWno/MRNKHn8IU2TkPJFCLdoSUKPffobpi3fyHnIs4wy5BbFbnt2TCPDKLmWhCyvZE1kO6XIBqK2v7lXG5zdrSP3sj8cjUFhAUIzaBCioVo+PDQITZgUNYM5Z1LM9zcx8jsEgJEv/xd7lQC/s8TwIHyyaAvenbvK/0bMDi+AQA3csr0adz02JegNM9BaJn0CGes6lqh44dEL0KlDUbglH/L3+UsOYPQYkXPFu/B9gBmw8IdrkqbuSypA0DUIIUwMBBAozDEYtfcXYX0QzkdezCaG5AOEuEwM5IMQCiCEi2Lwn3U03IJ1qr76VyiuCZBQ4Q6BYTUmuFZQNsd4i4yDk62o+KxG8IRDQvt7b0Dr554Es5AmIaYjLt5GHRHv2xWGByb9gjnrt3H7p1kFiooL0WAxw8AzbfhT50bWMQaj0YicDiVwcGpOAnISCo0MjxzfEz1aFnCwGENescg+H+dTzQcQgjspRm9iCOykeEL7NnguYBRDJEKKDGAHI0oiPowzjjkKeXn+URAmzsbJ8N2fS+FQAnCnJAggBHdShKZBGBqJIJrlGXITVhUJw0d9iIOUoy7k1iVBllQUZKXhzFOKMPqWoZw2Ol7I/T8NEKA5KQYxMVCY4xvPnR9U7uEAwjvjzg9vYvj7R6ioCTydDmcNQmgTA/kgkInhYnfHgvggBO44wQTVvhENtePBpBWUJgUGVzoc86oFf3s8MEECGrcq2PqvMneaUaq/1c0Xo/ObE8gVO2Z7XLPsCs38Ed0TmnwO7nv7J8zdtJM7QdHGQkn3MooLoRrjM/uQtkAyAlntW3KISN/sZVZw76kD0TonHZJXHoBm7n5EnwsLEBJmYgiVrKkQ/74kMibFoBoESDi+Y4vgRElaFs5AQE1flZEktg4EEPRgBn7DDTDeOnM/gdCAsy1BJobQACE76SYGHWK5gxK0P4Sik9u7vwGvvj0dLkdgKvrsnGwcO7AfMo029Du6DYoLY08o1XRBBAMI+nMLp4yKKOdARAutyUOHXIMQF0DI1qIYwvkgHDonxaSaGKLXIPiOvlgXCuoqX4GqTIXMHLDNs0NW6aiK/ZZP3IqOBgP2PFMB22aiwdR0SQDaX30B2r/9CpCZGQGjfCxT+sh8p8bmxB1v/oTVe/ZyRjFRJKSnGZGRnw9niPS6kfaYGYGcdi1hMDBc0r4YowZ0F/nsyKkhAfVH2o5Ynvt1WwWe/nZ28GyOiTIxJIhJMWCYI2dKktG7ZS5euXIILCb/Y1iBilXby3DXt/MDiIkhz2TCy1cMQbeWERAlNUnWJJjqRJ4H0kY1LfQ30u6RlsEhB4AoCdIghCJKOrYkB+OvTb4PAs17h1PFrnoXvlqzAzMWL+c5FQR5i79sWudlY+wlp6BjfnpwUiJdV6ClQ45lngd6J5gPwv8EQAA5KSYriiELEWkQgkYxHN4mhgQ6KQabqgIiMOaE07EKtrp3UD9/GSz8TCc8HYpjK/j0p4xslCRq03v74ZruOewEg7mMdsMGocNr44Auwltea0VcoCRRi7H56vH0etXOKkz4bjZW79gj5EGZ2LgzIkNRdiaU7OyY9DmCKEuj5wOQm5eHfh3ycEWvjujdqgiyBgoiU1o3n2QCfSksQGgODUK8RElugJCPV0aeCktArZCKZaUHcO/XHiZFtzwkhkyzGa9dcRq6lkQCEPx5ECTGcNvpA9GOHE+aFD7nwDD+5wWoYIGdFBORiyGkk2LSAYLKQ73XVTrxn98WY92OfSJXRhjnX5JNi+xMjD53IAZ3LA6yGJKzkuYvKcPoMf5hjqIRDIumXBfPfS7kwk6qBiECJ8XmCXMMHMVAzXsiTLrnwzfMEejbLRPvRe2kGGI6qKodletegbTpa8onBzroyeodbSFLtiK5YK7OxtqbtousZ00qyWzdAv0/nwicOlgAgyjSUkfbnsPteV0WlF541upSPPr5DNgcQsGpKw9IHBamIqt1CZyBbnMRdIrSv3JVMo9UMOCWQW1xxeCBkFSV51A/kkpYgJAoDcK0UDwIcZoYNIDQp2U+Xr7y1IAaBHpk+Y4y3PNNAIBArHxmowYQQudiGP78Z6gzmLmzXEKJkhKQi+FQAgQKWlxQWo1HvvmN+2M1zYQXak0Q2M4yGfHs5afj6NY5cehYo1t5oQGCigVTrk+aAjCpAEG7HSaPB+Hw1yDEY2IIr0EIyaQY3SR0P81cODj3ZqjVuwBHFU/3G20RqkzhELl1/EG4FhLOpaUpDiWR1ZuIY9Mx4Ok7kPbgPwFLaDrMaNtweD/PUGMH3vx5Mb6es0Q4HgbYbgqz0uHIzYHBLc/oekVypuyBhYY8OA/U4/uxw70+k5zbTnQtjPzp5gMIIZwUo8zF4MekGAlAALC8dD/u+ebPgMLJMhvw2hVD0LXk0CRrSkSYYygmxWSbGHbWNOKuT2eiqsERFSMpbWfEiEkcs2myjAfPPwFndG+TNNu/9+CHAwgLp1DW3sjXUjRPNgdAePrlWZgajAchTqKkd8cNQ95hzIOQXIAQMQ9CNFNCRcXSJwBlH9SGRqBuL2RnPei2S1khSTug8qxnKs+JHsqZUWIy7BslbHuMWMbIcz7QLFaRd/RR6PPVu0D3bh4TINf6xev/G02/k/Gs7yHMPaJVCZsPNOCut75GeU29SHFK0QOaWoE0CGQDJslmtSiAagqg6g3QVBGyqOsmZBglCZlWA4y2DDisLvRtn4Gx95/Mx+9ILGEBQjOYGM7pXIiHonJSbBLF4AYIeXj5ytOCahBWlJbh7m+DaRAOLUBIhIkhpJNiSXYSfRAYnp22FtPXUnIb372ITC+UgySDTKBFuciRVRiJqk7TfXq7JhDLbKbJiPsuOwe5gUn0ErrEQgMEYOEPIuGSf9H2Hy8zo98z3Bwc/LKQVICQdBPD/zgPQkgmRSJKSoIGgXyXHKWfoWH/XEgSAQIGl8MJk2KHrXInTGqjdoiLkCh/dx7fKajWydg5pgr27baAAIEggAEuZLRqhZxhJ6PzGxMAizgUj6w7brg9QYVNlfHcF79j1tptqLE7OBAIpDkg7Uum0QhLUQHUKEwBFH2doZqQ0ZgOqV6CvVHl3yAAcsOInrjkjA5HpCmHWOwoiqFZnBSnhWBSTBhACGFi4BqEUCaGyABCysTgvx7J9XrouK+5WcEvMzMDMuHC81ecjh6tCpFm0iKtfDY4zW+Ic4Uwnt45WHx+uN0gmt+DAQQ9qiV4LoZwO2jwNM96+5IKELRNPh4NwuffrcHrHywPSB7XvmVkUQznXfMRKgMwKR7uPgjhTQwJ1iDw6cQYrGVzoWz/lHs8i9TCDAbmApOMaKw5CMlhBZy1kFUHJxkVxZNvwQMbGE/8tOXzvXBOFhjXH1CIDADk7UCJZVr07IieEx8HThwMZPhTAkezsA6HZ6m/9TYFS7aW47lvZ6C82sq1A2S64Yl0AhT6a05OJtSsLE2y3s7VdOALeZM0yfxgIKaJRoYSQxGq99drBhxPqCphjAev6YlTjhVOoUdaOVwAQtxESRFqEBLhg3A4J2s6VD4IdQw4/6XvAkYp0Foac9HJOK1rS22X0neqAHdzvgDFOmwOTpfQAEHCImJSDFCEkReYuSCwnpcUB2dTribej8Al6QAhTDbH/mRiGDssBFHSGrz6/rKA6Z7bl2g+CCGIkmhvIYBQFWuypnipljcdwO2PzIDN7h9kGy4XQ3gehIhyMUR/HKiN5ahb/hjcyUmaVEEgwuGwg3yk62v2w+BsgFG18YXnUZcbOMsXZY1UGiSsH1XKCZMAc0CnRd9PmFA8pB96vPkqcFR7QNLCwcIB4ui7mrA3BCgS24UAWsJmOX9bNd74/jds2E3ptiMzFJpVF9LbtXJrXOjGQ0BMmGgkyCrl45SRiSxYKxqQwTLgsLs48ZFH78KNF2CSAVkWCR8/M5QrZppjQ0uYULWKIgIIzWBiiB8gUIdU9G5RgFdGBg5zpCeC+iCQk5wlMifFYERJVD9nUgxCtUy/XzPhc+xUA/gEUZjjoN64JYlUy8eV5OClJIU5UlqFc1/+TvOr8l2LBMpfvuZcHNMyM1Aex0RP6ajqC21iEMmagvkgkJLypBEfBdH0SlgUIlW0fqG754lZWLgicK6EoScV4JmHhkfVn6YPP/XSLPw8J3D9/fsU4z8h0j3/d/I6vDppadB0z++NC8+keO5VH6CqPjDzSLhkTRdcMwkHDlGyJgIIT0xYjBlz/gogfyJKSsekCZe5f4uKKCnciJYvGQOza1dQtK3fYDmpCk9t5uLaBSPRN7saoKouzqvADzQmYe/kOlR93ggZrrCew6RNoMOQYsKPGnE2Cu68EcbjBkDNyYR82NvQVVQ3KFhbWob/zFiKdTtIhgZOfBRJIT1MSWE+rGkWGHgUifCzNhPLUSODyWVAYUYhyvdUcwdEHqJFPPFB6ifMMLCjGWNGn3lE+3TM3FqBMd81Aw/CtBDpnjtHG8XQ1AchXoAgIctCJgYKcwzjpPj856gzNKFa1iZgXAAhAVEMoZwUj2uZi3HXnJUU1T3tRueM+5qvmab+UATo2xdk4ZmLBqNtYRZfc5HB+UhWdXzPhOVBCOqDIO4LJwYFCKFTRbsBwuN/YOHKnQE7MfTEfDzz8IVxdfCpl37Hz3P805tTpf37FuM/zw4LWv8Xk9fitUnLggIEclLMD5Pu+ZyR76PaGpiI7vG7huD8szoE/f7hDRCSpEEgaSjWHahd82yAFKYeWYljXE9Voi8oBtWlgCkuGKDCYbPC1VALx24r9t+7D06FzBICrXmfaU1chnzUfPSVouN6I//0wWj55ENQ0un+LIwaop5muBd7ay/cDoW61kDoD5xMwpOf/Iq/9ldg6/6DvFV6vgODV2fF3V4kXSIYRMQ1RHNL/zOZZBQUFEJm6WiR3QJ7d+yDgZlgghEul8Jf4mHbnGlRVBpqIyNtzxfPn43szGbwpoprmwj1sopft1bjaQ4Q/KNqrj9tIK4/rn0A3o7wNlbvr5Ij7tgQPgjndi7Avy85PaJeTl68AS/NWcvnumeeAjQPupfkY+LIU2A2afkOmmizl5aW495v5gb8TnRhjmkBqbkPX4AAHN8qG+OuSQ5REungbnrje2yyiaRVfCZpi4fWCZNkFKWb0S43HSf2PQp9e0UfpUDmvO4ymRA9GsWIJkyIh+Yv3YV7n/7NXaNnKxH/9ueU62DUHJQ9e6EgdrBLwKkjPmyyS1CniS9XwoIp14WMgCAZjX58FhauFOmYyX1aNyvTxW/IoGI899B5Af0cI1H4kmH5+dfmYPKvu6BI5Biqrxah7SwukPHDByLXBB8qr7VC//r8xF/x/Yy97jWmc+3Qo+1apeO9Fy9EXi75tPnvkrpJfcT1n6K80iVCgr1OJZLlNX/rhTuvH+jZZ4VdyX1+DbvmQ1TWNq2b/lvF9ZcfjVuvHhBygw4VxUDOsP/6x0Bccv7RXrPDI1UXpRp/bg4WLNvu/l3kARFnRN+uZrw3nhKFiZIwDQJvgqqgYvkzMLh2xzW/qS6ypdD8rfi+AjW/l8F6sAqyAkhOFQY68LQLsNPqgNNu58p0Py9jDgPIbm/EGWPugGvwSTAefzLUTAOv380fkDTXRs9hI6KnJb7D1NYD60sPYOaGHZg2bxmP9GgaW03/zdM0M8Aky7C7GFQnLVAV6QppBSwwqDJMpmw0Mgcs2QUad4EOJWIfgr6dMjF29CnNAaFib2SYN0nyW/dV4dbPfoUzgAYpTXXijRtHoFNhOuKBQQIgJCbMsdqu4LLXvgXBYTp4xALVIk0Y8ODwU9G/XR5KMs0+baZYn1Wl5SF4EGS8dsXp4TUIL3yOuiZMirqY4wEIyQ1zlHB8q6ykAQTa/FftqsT9X/0OB0+JSmOT4GnLGNrkpGHCVUPRKsuSEDVEVY0Vtz/8E7btsmtaQE+bqRsfvTQSPbuR6dYT+eViwNpNVjz45GTUWJvat2nDlTGgVwbeesGjgvaXhNiHnxo/Az/PposKmU299kGmom+PNnj5ybORk+V1gLujqfjuH1zA2jZfbwdGjPoY1ga68nj2fv0Av/X6MzDi9NbIzxe3fHH8Svh9/l68/v4ylJdXuj3hBECiXxmuGNYT99x6YmhNEGP46Ls1ePMjSh5GUSueCUH/lp5mwdiHLsDx/bJ4V8SvKhpsMj76fgM+/mIJv7T4XnYZ0tMNePv589G9E+U8CT7JQiVrorF96OZjcPEF/dwy1M+e2noVvy2qxvOv/uDbZgJYEmBkLkwcey7692mdeICgs4pZd/4CZe93ca0gsouLaAcZrEHFvpe2weIUNyfO8KuBB+oU3ZAVShKj39A1vTz3FNbijGQKPZIMnOgno0sPvOM4CgMvvwwXnN8KREzHmAJJ91mIq+W+L1NTeESHxGBwyZj47josW7keVpaOvZUVPHxRpt84w4PnlstzXnBmRA4pINNhoTAoLj2DvB7MSSDCieLOrcHIuJQABSfdXu+5shvOGtQ5gZI4BFUxBpuq4pEvfsPS/XV+DXBKKoosWSjKTYdFIQhBG6C4ERJZ1ItXnYFMLTImVOvDahCiYFIkv4kflmzAq7PXwuXOeyAmNp/zUFGUk4Msrg3js4T/xmCEs9GOHbXWgE2NVIOQNCfFBJgYgjspJhcgkPQVp4Jnvp6B3/ZYeSKlkAdYjFOdau1RnIeJo85E6CwAkX+AUk/ffO+XqLRaePSEflDS/pqda0FxQSYkyQ4DN8wa4YIFe/fXodFmdzs061+j/akwXcFn745CYQ4d4KHzvBysbsRF174PF4ge33OA63w3bdsWI8NIDul2QKYjjHETEWllHrnrbHTrQnkpQrhBqhLe+uhXfDy5FEw1+YA2rhGQJLQuzkNWhgSjbIOimuGUzdi5o5Lvo+TrpcMQitpSZYYWObX4/K1/IDsrPaSQqTf1tQ0YddeH2FeZzp3y9SIupAakmY1o3yYfMuphlFxwsUzUO4D9e6uhMh0weSACnQE3XdUZ1116Cs9/E0q/HRwg0G3CiDaFMrK80noYJAOczACr3Yw9+6r9NPwCHEkYffMAXD7cW/OQQA2CEBADc9SgasUjYuC9VCuRT+smh6wkwfpHLax/VHHNgUDw3tgrgpo1oKAjRbshA29Xd8KfzjYwZZpwyw2Xol0rBtlgQ8eOLdGxUxYMGr7w1k8Fnq5i8nNcQuGeCrBlSxX27a6Agnys31SJjz/5CQqTYTEBxvxsqDQDvPEjRxKRXku80TJDSdsWYCbyV4hHcyBIqnimxizgnafORrqR1GKRtimCMTgEj5BEbE4Fz337OxbtroLDbaYSGiiNU5pvnroBi96hxTr5n8ORkx6eiIsAwnPTl+OXddu5f4cuMZ7cSmI4r1MhHo6QB0EX0VjjtDUAABE1SURBVGcz/8RvO2uxtbKOO4zSpsokBYyRqlYzk7nXljiwKHrIk4/DW9gM6RYDJl5xGrqU+Gdj9H6SwhzrDelckSzU3YK6m+bqmzf8DX0Kgh8K5KS4Wwl0tDGMHNSXOynGNp/EDfHTRaWYNGel3yyi345tnY3xV1M2x+TMV1pbdOC89fM8zNhcjmqHHhUk8mTosvI0LlA7wuxZWi6GNIOCN28cjk65oQ+p8MtJqEj37qvA+1+txcw5G9DoojrFTVkYNLR7Na1zmsgcQQidgtjNNROm3IhBA1th7GPDI/bmYkxF6e46/OuZH7B7n4sfmkKVr+1TfMuTxb7FxaUBGAl4+/lh6NczGDW1d89V/DrnL7z/35XYvsvOQbXub8Y9Rmjc+Hkh+kljJfGbu05LL9aSxeTA5ef1wvUjj0VmZmTwTOzCKt78YB6+/nkdbPY096VO8P2IQ17oCejEF/wYuux1r3R6okPrNNx54yAMpoixMFOY9pWNGw/itkcDRzH42FPcoqK5IAAYyZv+Sa0hkxldTXt1K8CQY3Nw7cjT/Y7shJkYRFuEMsOxfx5speQFG5+lX6iLVLA6oOrdCrhqbRoDbPwbAXGrT63Kxvs4iaNJWjAmiSE3OxfZeRmcz0GWaFq7IMkKBhzbF9mZacjKSOdCrrM2wGp1YMXy1WCqEXYefWECKSuqqmtRY7XDqAAumTQECnKLcuAy0I2fwjMTU8xmCdkti8AMdOuNEjT5NMGzKUx4YDB6tM0JO1ET04PmqcXucqG8xoqvZi3GH1vKUWtIcy9d0QKPfwstWFo4k/95YcQAYey0VZi5dhO3tergVWyDDMM7FuJfl0bmg+BW9jIVdTY7dltdGPf5VOxw0IIm2BK9epveyTUZ8NqVp6FzGCfF4S98gmoDeeR7GExpxyBtxZs3XoheBYEIuMRWefsHU7G2otF/QJmMqwf1wc2DO0MOc+sMNBvEHgB8tGQbJs1Z4fcIjdeAVnl4mQOEJBbG4GRAZU0dvp2zDFM2lsMhETAL5OsbaIVHzi5bmJaGz/45HHEHbHPhiYNxx/5KfP/zQnw/ZQMcyNduvZ426S3WGVoNTIXJWIkbrh6MM0/qhlYt82EwRL9zVVTXY/uOCjz38hTsqUqHxEyaOZUa5y8TWkPvvTAMR/csCjuY+tyorq3HgRoXXv/PZCxfa4WCTG7W4GyyfM7puWjJ3CHzv8twwiLtxXOPXocObTLQplVhDHuewqPu9pYdwKbSGowZ+yka1TZwSRR7RyBEcwgX3mPihOQaSsAEK/oelY77bh+BwnwT8nOzw/ZXPMCwblMF7nh0GmyNxNIRSfH13+PAQK5H91YqHn90FFoUmJGdoV+GfM/WBAME0QFSd1eufgGGxq18cvISc94EkSilal4VlOkN2q0v3sOQhCDuSaWuPLxR2w1bpUIOFGhDNTLGnQA9jmLCF8DTD32o9IwRpCrzuj26fVIUGAxAflE+bBpK9hzFkQxsqGcYitsWgcWZ0lnrFJdHv85ZePbuU7WLXvwgLN4eJu59z42I1mpVgw1/Ll2NyqoqbSC9+qoReY0cdgYs5vCMlAQW5y1fi62797pvDWIjEDeYDq2KMeQE4bAUWfFoiKCpImkbWLF+EzZsLtU0RZHVxFejpCLNZMJ5Q05Gbpjb0bfTZ8FqI5u1OFT0QrD/wjNPRiEZjYOUqbMW4GCVP3MMAaa+3bvgmJ7duFYulkISWb1pO1at3+z3OvWvKDcH5w85KWkaBM9HNWsuqaQhoayqDnMWLkajw2uj9gHqQt+j7xZi/wgvAZ5TxWLAFcPiBT1ec4nmAr9RA0yVsHHzHqxcsx41NXWor7MiKzMd6enpaNumFXoe1RWtWuaQF5SIpuL7WXTOu3zu6dou6jTJjEmYv3gdFi5aBVUVLuM6aRS/2fIdV8FVV5yFtq0JIIQTlvc5IJ6leuxOCVu378W6dRtQV9eAysoqmExG5BfkoXPH9ujX5yhkZZHJ2Xtkor3M6r3TYlt0antVQl2Dgr/+2oqNmzajttYKh9OB3NxcZGdnoV/vHujcuTWM3Iygav33PhXC9RkoO1CNL76eBofDGSBjUQDzBLHuSkBObg66duqE/sd0R3625uuiaa99Z4pnjiYBIAibfv3epVB2vcMHWSE7u+qfACb8UvE8Iasydry1FWll5IsQD0Dw/SrxA9gkAz6saINpxr5CDUUeAdwGrLGfRTBVvWsVwF1FYWEW7EYZjFBCQouEnPwMmHMzE1KrmJ4yXrr7WPTsUpiQOlOVpCSQkkBKAikJHNkSSApA4GBTYqjc9Cnkyj/BiH6Zn5rh0VFQcaoKHLsYqj4pg+yIXF0XfngEyqcbwZ+NRfiyrh32mEqEaSOm9jKkmU2Q02VI6cKOqIcthm9LJE9IkI1AXssCyAnRHnDYjQsH5eGWkYMiaUDqmZQEUhJISSAlgf8HEkgOQNAZCZQG1K+fCLV+c3htUVhhu6AwE3a+vxXZpRY3H0DcFfPEI7rNlaFONeGD+u6YpbTjNmVSFRP1s3jGt/DfuGZEuKKQOpWilAx5uRroCNupiB5ooqREQatCyGlGQWwQd5FxXI9sPHnboGQ4Z8fdulQFKQmkJJCSQEoCh0YCSQMIenfsNdtQ99erMDAKEYpdgyAsRAoMqgX73tgBuVzL9BhtREMEcibb8Zy6fExWumE7ioPGPdOnBXERg8kAZOVnwUHGpSSWjCwzsoryYkioHahRErLTVDz1j4Ho3qWYexWnSkoCKQmkJJCSQEoCJIGkAwT6iLNhH2pXPwMDiLg0jsLIR1FG9V/VaPi6GrJXWFkctTZ5VXcYIa9lM35ubIHPbL3hJL2+XyGEoKCopACNBnJcMvGoB+EJnNjCnSBNEvJa50M2GKN2VgvUGjOs+HDsRcjJpBCkxLc5sRJI1ZaSQEoCKQmkJNCcEmgWgECqcPvBpWjY8gEkySE8pGO4+QtqU0EgVP1LFZwL6kQgZRNWqvgFKAg7BPGhjI1WA2ayHvjTUQK7lC6+xxgy0o0w52bAyTUjOrBI1kGrIqswG2nZRDwSu2FFtJJyYdjx2D+Ox7F9Wsal2Ylf1qkaUhJISSAlgZQEDkcJNA9A4FGgKtT6nahZMwEGqUGTRayHKQVyGrDrP6VI20dViYiDxBcKCyKiGsE0dsCQiWf3tMe+tBJktciHXTbxUBkKNeYcTkksuflZsORlQOHhlPH0leKAG/HhM+eiIId8OSiBNDU+ZV5I4vClqk5JICWBlASOOAk0G0AQkmGwVaxHw7avISu7OZGEfqONTqMgDkj7fidq3i8HiBlUozVO5AhQaKUiE0MdoMhGGPLz4MjOx3JnIRY0FmN5QwbXMPAbuZbwwqNJSFBLGINskpHfqhBS1EQlgq6a83lpFNX5ZhtGX38C+vdqy5sqwEaS0U2CRJGqJiWBlARSEkhJoPkk0MwAQXTM4aqBdc07kBwbOXkGRQiQb0G0BxVZKZwHZVRO3ClMAgkpgq2O6lOISVGR0ZCWicKu3eAymGAgSlKJ/AyM2Id0PP+XBQeMhWg0EKW4kftZMGgZ9xLQHoqMaNOxNRxE0RhlEVnUKIW24KDo1cGMJ+8+A+kGFUg5JEYpzdTjKQmkJJCSwP8vCRwSgEAiVhU76nf9AXv5rzAp1QIcRHmRJUhgYAwV86rg+M0KoyJImaKsxm/ESbPhMltgLiiEkpkFS0aWnvfJnSyZvk0UtKSgX16pYqWzCPNr02CVsgKyW8UyrUhhUNCmGCxGCjqSA5k+CtIZRpzcDn87rzeMVKnOURq3pGLpVeqdlARSEkhJICWBI0EChwggaDSVRK/psmHXineQpRKNql2o8zWsEIlnvci5I2Hz+xuQtyNTcAOEQQg8PJG4J0UYh1DDa/mSXEYDjG06wJiTzZ0h/Yubc9md2IKDBY13+6eDafi+ugVszAQKxKTUPzpJqZ5v0aPWD6z1oCgII1RktSyAOY20EdSOUORQkjt9NVFEU14GAi+SbEDH/Bq89NDFMJvJFCLMDSl/gyNhaabamJJASgIpCRxaCRwigODdaQZVVdFQuRmsejkaDyyBGfUa90Dk9nHiFy+fvA/SSmc4fKAxhDOetMMly5Ay02HKLQTLyICcliFcHmO1WEiAUzJgbTXDVrUQ88sV7JULuK+CyO0VgTOgxJCZl4X0KKiUdb0J1W4yOHDuoI4Y2CMHA/p0gExRFvGqVQ7tPE19PSWBlARSEkhJoJklcIgBgnYK66lrVUoZ1IgDW2fCUrkIEqrAGB34+t07uHToCQOTUfrOZqTvNgVNgsFv+7IZLtkAuWURMgsKwRQDFJkyc1GmLZH6ONYi0jdpoQ2aBoGyB373f+2dy28TVxTGvzvjGT9xTDJNEwkilIS06QbxqICWTSuEoIuuKlVdVCxYw3/Cln+BrmDRRTcIFhVIIB4CNrSqocqDtCQ2jmPjYTK+g869Mx4ThxYSFDvxcXZWxnPvb2Z0z5x7zvc99XFndRRVWFhVp3qXP0MAM5PA4LDzH1sV7eYe2gPQTJBrn48jn5u48PN3ZAuuuGkzWspJvEdgstFJ83FMgAkwASaw4wh0OUCIeHZmCqT04FbmAG8BqyszaJSLMLEEW9b0QcpLnIrt9GKu0+fUcpjAi6vzwENXtSj6poA0Esg6nyBIWFSyBzubhbAs1UWh/M3oDXvjMcHbN4V6Uw/nQ4FPmNIXQi/Tc/UAc65AObEbM66FJ4sNlOwCPJFWS3mykEK2kA+NsuNBhRsiOvwIApjCQ9Z2cezgFCb3FuAMAAe+2AebzKFadRjco7DjnlieEBNgAkxgiwj0SIDQOVtl/xlJM5PsgbLPBaRXh1v7B6+qz1GtUKtkWN2vHJFs5PIjSO5yUPz1PgaLRYiGRGDSsVTREHpybxHc9U4Th0La40EaEkIaqKZzKH19AksiiT+fzWBhoQwgVm8kmemJ8RF8eWga+/eNYmggrVsXyZL1rewA7yV08fLyqZkAE2ACO4ZAzwYIMeH2JTXaSm/POMRFg/rdPfYVr9x/jBe/XEHKp14D/V4fLcjduoKtzQFl9GQgMALUsxmMnf0J6fFxNcF4M2BtWiO2bfpQ9/JuzZfPywSYABNgAtuTwDYIEDYOlrIQsl7D04uXYC9Xw8LHUEZ54z+7uSOVOySl/klvQWJ17xgmzp+DMD+edsLmBshHMwEmwASYABPYIrOmboGOsgmvlkooX7sO794jGE2/6wV7lAd4bRoYOnMSuaOHYVFNBLcZdOs24fMyASbABJjAOgR2dAYhmi8FCvS3eOcevN9uoFldVq2OJLKkOhaU3sHHqlJs2xwRJNOsNwyUWbXQZlOG4yD1/Sl8Oj2tCyRZm4AfTibABJgAE+gxAn0RILSYBwHcUgVLt27B/f02LOlT9aPyI9i8/mLnlVUtkwbVGugiS9eykD/9LZzjR2Gmkpw16LGHgYfDBJgAE2ACMYH+CRBUJ0Q4cfJwWFnG7OUrMP+eBTxPdziE/7CecfP/5Rfafrrl10RBASkp+rkMgs8msP/HHwCSTY50H/hOZAJMgAkwASbQowT6J0BY5wJI2URtfgGNJ3/g3+s3MeB5SmNANUOqtkpt3KRlFTvbByMBJ8o+KDFkZfKk13/6rpxJYezUN7AnJ5AfHenRW4CHxQSYABNgAkygk0BfBwiEQ4sfCwRSYv7BAzTuPoJdfgm3UoHd1C6T5OBI9QNrP4Eg5UXVjwDPEBAJE7YzhEohj+ETX2F4akqVNyinyUjTge9CJsAEmAATYALbgEBfBwhr8wLafyHA65Ua3FIZlmyiPvcci38VUZuZRdJvIiG12BJ5OAS7csjt2QNnahL24G74to2sMwQzk25lEli2aBs8BTxEJsAEmAAT6CDwBncO/ciW3R5kAAAAAElFTkSuQmCC;" vertex="1" parent="1">
          <mxGeometry x="480" y="200" width="380" height="116.19" as="geometry" />
        </mxCell>
        <mxCell id="7WdWyQTxUCrzGVzjhmJ1-9" value="" style="shape=image;verticalLabelPosition=bottom;labelBackgroundColor=default;verticalAlign=top;aspect=fixed;imageAspect=0;image=https://abacusinsights.com/wp-content/uploads/2019/07/logo-AWS.png;" vertex="1" parent="1">
          <mxGeometry x="520" y="600" width="270" height="173.42" as="geometry" />
        </mxCell>
        <mxCell id="7WdWyQTxUCrzGVzjhmJ1-12" value="" style="shape=image;html=1;verticalAlign=top;verticalLabelPosition=bottom;labelBackgroundColor=#ffffff;imageAspect=0;aspect=fixed;image=https://cdn1.iconfinder.com/data/icons/business-and-finance-20/200/vector_65_12-128.png" vertex="1" parent="1">
          <mxGeometry x="280" y="236" width="48" height="48" as="geometry" />
        </mxCell>
        <mxCell id="7WdWyQTxUCrzGVzjhmJ1-13" value="" style="edgeStyle=orthogonalEdgeStyle;rounded=0;orthogonalLoop=1;jettySize=auto;html=1;startArrow=classic;startFill=1;shape=link;strokeColor=#FFD966;width=18;endArrow=none;" edge="1" parent="1" source="7WdWyQTxUCrzGVzjhmJ1-1" target="7WdWyQTxUCrzGVzjhmJ1-12">
          <mxGeometry relative="1" as="geometry">
            <mxPoint x="470" y="260" as="targetPoint" />
            <mxPoint x="200" y="260" as="sourcePoint" />
          </mxGeometry>
        </mxCell>
        <mxCell id="7WdWyQTxUCrzGVzjhmJ1-17" value="" style="shape=flexArrow;endArrow=classic;html=1;rounded=0;strokeColor=#FFD966;" edge="1" parent="1" target="7WdWyQTxUCrzGVzjhmJ1-21">
          <mxGeometry width="50" height="50" relative="1" as="geometry">
            <mxPoint x="200" y="443.72" as="sourcePoint" />
            <mxPoint x="490" y="444" as="targetPoint" />
            <Array as="points">
              <mxPoint x="210" y="443.72" />
            </Array>
          </mxGeometry>
        </mxCell>
        <mxCell id="7WdWyQTxUCrzGVzjhmJ1-22" value="2：加入代付组织" style="edgeLabel;html=1;align=center;verticalAlign=middle;resizable=0;points=[];" vertex="1" connectable="0" parent="7WdWyQTxUCrzGVzjhmJ1-17">
          <mxGeometry x="-0.3125" y="1" relative="1" as="geometry">
            <mxPoint as="offset" />
          </mxGeometry>
        </mxCell>
        <mxCell id="7WdWyQTxUCrzGVzjhmJ1-20" value="Cloud Console" style="editableCssRules=.*;shape=image;verticalLabelPosition=bottom;labelBackgroundColor=#ffffff;verticalAlign=top;aspect=fixed;imageAspect=0;image=data:image/svg+xml,PHN2ZyB4bWxucz0iaHR0cDovL3d3dy53My5vcmcvMjAwMC9zdmciIHhtbG5zOnY9Imh0dHBzOi8vdmVjdGEuaW8vbmFubyIgd2lkdGg9IjQyNCIgaGVpZ2h0PSI0MjQiIHZpZXdCb3g9IjAgMCA0MjQgNDI0Ij4mI3hhOwk8c3R5bGUgdHlwZT0idGV4dC9jc3MiPiYjeGE7CS5zdDB7ZmlsbDojNDI4NWY0O30mI3hhOwk8L3N0eWxlPiYjeGE7CTxwYXRoIGNsYXNzPSJzdDAiIGQ9Ik00MjQgMHY0MjRIMFYwek0yMTIgOTcuODQ2Yy0zNy44ODQgMC03MC4xNjQgMjMuOTktODIuNDc4IDU3LjYwOGgwbC0zLjQwMy4wMDFjLTQyLjYzNCAwLTc3LjE5NiAzNC41NjItNzcuMTk2IDc3LjE5NnMzNC41NjIgNzcuMTk2IDc3LjE5NiA3Ny4xOTZoMCAxNzEuNzYzYzQyLjYzNCAwIDc3LjE5Ni0zNC41NjIgNzcuMTk2LTc3LjE5NnMtMzQuNTYyLTc3LjE5Ni03Ny4xOTYtNzcuMTk2aDBsLTMuNDAzLS4wMDFDMjgyLjE2NCAxMjEuODM3IDI0OS44ODQgOTcuODQ2IDIxMiA5Ny44NDZ6IiBmaWxsLXJ1bGU9ImV2ZW5vZGQiLz4mI3hhOzwvc3ZnPg==;" vertex="1" parent="1">
          <mxGeometry x="80" y="400" width="100" height="100" as="geometry" />
        </mxCell>
        <mxCell id="7WdWyQTxUCrzGVzjhmJ1-21" value="L2C Admin Console" style="sketch=0;outlineConnect=0;fontColor=#232F3E;gradientColor=none;strokeColor=#ffffff;fillColor=#232F3E;dashed=0;verticalLabelPosition=middle;verticalAlign=bottom;align=center;html=1;whiteSpace=wrap;fontSize=10;fontStyle=1;spacing=3;shape=mxgraph.aws4.productIcon;prIcon=mxgraph.aws4.management_console;" vertex="1" parent="1">
          <mxGeometry x="520" y="390" width="80" height="110" as="geometry" />
        </mxCell>
      </root>
    </mxGraphModel>
  </diagram>
</mxfile>
